<?xml version="1.0" encoding="utf-8"?>
<!-- Generator: Adobe Illustrator 24.1.2, SVG Export Plug-In . SVG Version: 6.00 Build 0)  -->
<svg version="1.1" id="Capa_1" xmlns="http://www.w3.org/2000/svg" xmlns:xlink="http://www.w3.org/1999/xlink" x="0px" y="0px"
	 viewBox="0 0 512 485.6" style="enable-background:new 0 0 512 485.6;" xml:space="preserve">
<g>
	<path d="M507.1,200.8c-2.1-19.1-17.5-33.9-36.7-35.3c-16.7-1.2-33.5-2.1-49.8-2.8c-36-1.5-72.3-1.9-108.5-1.2
		c2-41.1,0.8-82.7-3.7-123.7c-2-18.2-16.7-32.4-35-33.7c-62-4.3-124.8-5.2-186.7-2.6c-5.1,0.2-10.4,0.5-15.5,0.7
		C67,2.4,63.8,5.9,64,10.1c0.2,4.1,3.8,7.3,7.9,7.1c5.1-0.3,10.3-0.5,15.4-0.7c61.3-2.6,123.5-1.7,185,2.6
		c11.1,0.8,20,9.3,21.2,20.3c4.4,40.6,5.6,81.8,3.6,122.5c-24.9,0.7-49.7,1.9-74.4,3.6c-19.2,1.3-34.6,16.2-36.7,35.3
		c-1.1,10-2,20-2.7,30c-11.5,0.2-23.3,0.3-35.1,0.2c0,0-0.1,0-0.1,0c-8.1,0-15.6,3.9-20.1,10.5c-13,18.7-34.6,37.1-50.5,49.1
		c-2.8,2.1-5.5,1.2-6.6,0.6c-1.1-0.5-3.5-2.1-3.5-5.6v-33.9c0-12.9-10-23.6-22.9-24.5c-0.8,0-1.5-0.1-2.3-0.1l-1.3-0.1
		c-11.1-0.8-20-9.4-21.2-20.4c-6.1-55.5-6.1-111.7,0-167.1c1.2-11,10.1-19.5,21.2-20.3c0.5,0,0.9-0.1,1.4-0.1c4.1-0.2,7.3-3.8,7-7.9
		c-0.2-4.1-3.8-7.3-7.9-7c-0.6,0-1.1,0.1-1.6,0.1c-18.3,1.3-33,15.4-35,33.7c-6.2,56.5-6.2,113.8,0,170.4
		c2,18.3,16.8,32.4,35.1,33.7l1.3,0.1c0.8,0.1,1.6,0.1,2.3,0.2c5,0.3,8.9,4.5,8.9,9.5v33.9c0,8.2,4.5,15.5,11.8,19.1
		c3,1.5,6.3,2.2,9.5,2.2c4.6,0,9.1-1.5,12.9-4.4c16.7-12.7,39.5-32.1,53.7-52.5c1.8-2.5,4.7-4,7.9-4c11.5,0.1,23,0,34.2-0.2
		c-2.5,45.2-1.2,90.7,3.7,135.7c0.4,4,1.5,7.8,3,11.3c5.9,13.8,18.8,22.9,33.8,24c43.9,3.1,88.6,4.5,132.9,4.3h0.1
		c3.5,0,6.7,1.7,8.7,4.5c15,21.6,39.2,42.1,56.8,55.6c3.9,3,8.6,4.5,13.4,4.5c3.3,0,6.7-0.8,9.8-2.3c7.6-3.8,12.3-11.4,12.3-19.8
		v-35.9c0-5.5,4.3-10.2,9.8-10.6c1.2-0.1,2.4-0.2,3.6-0.2l0.3,0c19.2-1.3,34.6-16.2,36.7-35.4c0.2-2,0.4-4,0.6-6
		c0.4-4.1-2.6-7.8-6.7-8.2c-4.1-0.4-7.8,2.6-8.2,6.7c-0.2,2-0.4,3.9-0.6,5.9c-1.3,11.9-10.9,21.2-22.9,22l-0.3,0
		c-1.2,0.1-2.4,0.2-3.6,0.2c-13.4,0.9-23.8,12.1-23.8,25.5v35.9c0,2.8-1.5,5.2-4,6.4c-2.5,1.2-5.3,1-7.4-0.7
		c-16.8-12.8-39.8-32.2-53.6-52.2c-4.8-6.8-12.6-10.9-21-10.9c-0.1,0-0.1,0-0.2,0c-43.9,0.2-88.2-1.2-131.8-4.3
		c-9.3-0.7-17.4-6.4-21-15c-0.9-2.2-1.6-4.5-1.8-7c-6.4-58.9-6.4-118.6,0-177.4c1.3-11.9,10.9-21.1,22.9-22
		c65.1-4.6,131.1-5.5,196.3-2.8c16.2,0.7,32.8,1.6,49.3,2.8c12,0.8,21.6,10.1,22.9,22c5.2,47.1,6.2,94.8,3.1,141.9
		c-0.3,4.1,2.9,7.7,7,8c4.1,0.3,7.7-2.9,8-7C513.4,297.3,512.3,248.7,507.1,200.8L507.1,200.8z"/>
	<path d="M306.3,271.5c0-12.9-6.3-23.3-14.1-23.3c-7.7,0-14.1,10.5-14.1,23.3s6.3,23.3,14.1,23.3C300,294.8,306.3,284.4,306.3,271.5
		z"/>
	<path d="M414.7,271.5c0-12.9-6.3-23.3-14.1-23.3c-7.7,0-14.1,10.5-14.1,23.3s6.3,23.3,14.1,23.3
		C408.4,294.8,414.7,284.4,414.7,271.5z"/>
	<path d="M346.5,355.7c23.1,0,43.8-13.8,52.8-35c1.6-3.8-0.2-8.2-4-9.8c-3.8-1.6-8.2,0.2-9.8,4c-6.6,15.7-21.9,25.9-39,25.9
		c-17,0-32.3-10.2-39-25.9c-1.6-3.8-6-5.6-9.8-4c-3.8,1.6-5.6,6-4,9.8C302.7,342,323.4,355.7,346.5,355.7L346.5,355.7z"/>
	<path d="M56.7,70.3h169.6c4.1,0,7.5-3.4,7.5-7.5c0-4.1-3.4-7.5-7.5-7.5H56.7c-4.1,0-7.5,3.4-7.5,7.5C49.2,67,52.6,70.3,56.7,70.3z"
		/>
	<path d="M233.8,106.8c0-4.1-3.4-7.5-7.5-7.5H56.7c-4.1,0-7.5,3.4-7.5,7.5s3.4,7.5,7.5,7.5h169.6
		C230.4,114.3,233.8,110.9,233.8,106.8z"/>
	<path d="M56.7,143.2c-4.1,0-7.5,3.4-7.5,7.5c0,4.1,3.4,7.5,7.5,7.5h60.5c4.1,0,7.5-3.4,7.5-7.5c0-4.1-3.4-7.5-7.5-7.5H56.7z"/>
</g>
</svg>
