<?xml version="1.0" encoding="utf-8"?>
<!-- Generator: Adobe Illustrator 24.1.2, SVG Export Plug-In . SVG Version: 6.00 Build 0)  -->
<svg version="1.1" id="Layer_1" xmlns="http://www.w3.org/2000/svg" xmlns:xlink="http://www.w3.org/1999/xlink" x="0px" y="0px"
	 viewBox="0 0 52 27.6" style="enable-background:new 0 0 52 27.6;" xml:space="preserve">
<style type="text/css">
	.st0{fill:url(#SVGID_1_);}
	.st1{fill:url(#SVGID_2_);}
	.st2{fill:url(#SVGID_3_);}
	.st3{fill:url(#SVGID_4_);}
	.st4{fill:url(#SVGID_5_);}
	.st5{fill:url(#SVGID_6_);}
	.st6{fill:url(#SVGID_7_);}
	.st7{fill:url(#SVGID_8_);}
	.st8{fill:url(#SVGID_9_);}
	.st9{fill:url(#SVGID_10_);}
	.st10{fill:url(#SVGID_11_);}
	.st11{fill:url(#SVGID_12_);}
	.st12{fill:url(#SVGID_13_);}
	.st13{fill:url(#SVGID_14_);}
	.st14{fill:url(#SVGID_15_);}
	.st15{fill:url(#SVGID_16_);}
	.st16{fill:url(#SVGID_17_);}
	.st17{fill:url(#SVGID_18_);}
	.st18{fill:url(#SVGID_19_);}
	.st19{fill:url(#SVGID_20_);}
	.st20{fill:url(#SVGID_21_);}
	.st21{fill:url(#SVGID_22_);}
	.st22{fill:url(#SVGID_23_);}
	.st23{fill:url(#SVGID_24_);}
	.st24{fill:url(#SVGID_25_);}
	.st25{fill:url(#SVGID_26_);}
	.st26{fill:url(#SVGID_27_);}
	.st27{fill:url(#SVGID_28_);}
</style>
<g id="Guides_For_Artboard">
</g>
<g id="Layer_1_1_">
	<g>
		<g>
			<g>
				
					<linearGradient id="SVGID_1_" gradientUnits="userSpaceOnUse" x1="43.6022" y1="116.8348" x2="6.3835" y2="105.6344" gradientTransform="matrix(1 0 0 -1 0 130)">
					<stop  offset="0" style="stop-color:#D3880D"/>
					<stop  offset="0.4248" style="stop-color:#CF7F06"/>
					<stop  offset="1" style="stop-color:#CC7700"/>
				</linearGradient>
				<ellipse class="st0" cx="26" cy="18.5" rx="26" ry="9.2"/>
				<g>
					<g>
						
							<linearGradient id="SVGID_2_" gradientUnits="userSpaceOnUse" x1="52.0008" y1="112.4116" x2="0.1423" y2="112.4116" gradientTransform="matrix(1 0 0 -1 0 130)">
							<stop  offset="0" style="stop-color:#FAE877"/>
							<stop  offset="2.580000e-02" style="stop-color:#F3D65C"/>
							<stop  offset="5.460000e-02" style="stop-color:#EEC645"/>
							<stop  offset="8.180001e-02" style="stop-color:#EABD38"/>
							<stop  offset="0.1058" style="stop-color:#E9BA33"/>
							<stop  offset="0.1474" style="stop-color:#ECC340"/>
							<stop  offset="0.2238" style="stop-color:#F5D961"/>
							<stop  offset="0.2667" style="stop-color:#FAE877"/>
							<stop  offset="0.3413" style="stop-color:#FAE877"/>
							<stop  offset="0.5636" style="stop-color:#F8E262"/>
							<stop  offset="0.851" style="stop-color:#D3880D"/>
							<stop  offset="0.8804" style="stop-color:#D58C11"/>
							<stop  offset="0.9129" style="stop-color:#DA9A1E"/>
							<stop  offset="0.9467" style="stop-color:#E3B033"/>
							<stop  offset="0.9813" style="stop-color:#F0CE4F"/>
							<stop  offset="1" style="stop-color:#F8E262"/>
						</linearGradient>
						<path class="st1" d="M26,18.4c-14.4,0-26-4.1-26-9.2v7.6C0,21.9,11.6,26,26,26c14.4,0,26-4.1,26-9.2V9.2
							C52,14.2,40.4,18.4,26,18.4z"/>
						<g>
							
								<linearGradient id="SVGID_3_" gradientUnits="userSpaceOnUse" x1="0.5008" y1="114.6836" x2="1.252" y2="114.6836" gradientTransform="matrix(1 0 0 -1 0 130)">
								<stop  offset="0" style="stop-color:#FAE877"/>
								<stop  offset="0.2182" style="stop-color:#F7DC4D"/>
								<stop  offset="0.4116" style="stop-color:#EBC138"/>
								<stop  offset="0.619" style="stop-color:#E2AB27"/>
								<stop  offset="0.8186" style="stop-color:#DC9D1D"/>
								<stop  offset="1" style="stop-color:#DA991A"/>
							</linearGradient>
							<path class="st2" d="M1,17.4c0,0.5-0.1,0.8-0.3,0.6l0,0c-0.1-0.2-0.2-0.8-0.2-1.4c0-1.9,0-1.5,0-3.4c0-0.5,0.1-0.8,0.2-0.5
								l0,0C0.8,12.9,1,13.5,1,14C1,15.9,1,15.5,1,17.4z"/>
							
								<linearGradient id="SVGID_4_" gradientUnits="userSpaceOnUse" x1="2.6258" y1="112.3907" x2="3.8149" y2="112.3907" gradientTransform="matrix(1 0 0 -1 0 130)">
								<stop  offset="0" style="stop-color:#FAE877"/>
								<stop  offset="6.860000e-02" style="stop-color:#F8E261"/>
								<stop  offset="0.1372" style="stop-color:#F7DD52"/>
								<stop  offset="0.1939" style="stop-color:#F7DC4D"/>
								<stop  offset="0.4171" style="stop-color:#E9BA33"/>
								<stop  offset="0.646" style="stop-color:#DD9F1E"/>
								<stop  offset="0.848" style="stop-color:#D68E12"/>
								<stop  offset="1" style="stop-color:#D3880D"/>
							</linearGradient>
							<path class="st3" d="M3.7,19.7c0,0.5-0.3,0.8-0.6,0.6l0,0c-0.3-0.2-0.5-0.8-0.5-1.3c0-1.9,0-1.5,0-3.4c0-0.5,0.2-0.8,0.5-0.6
								l0,0c0.3,0.2,0.6,0.8,0.6,1.3C3.7,18.2,3.7,17.7,3.7,19.7z"/>
							
								<linearGradient id="SVGID_5_" gradientUnits="userSpaceOnUse" x1="6.4471" y1="110.4435" x2="8.0242" y2="110.4435" gradientTransform="matrix(1 0 0 -1 0 130)">
								<stop  offset="0" style="stop-color:#F7DC4D"/>
								<stop  offset="0.2" style="stop-color:#F7DC4D"/>
								<stop  offset="0.2635" style="stop-color:#F2D044"/>
								<stop  offset="0.4625" style="stop-color:#E5B12C"/>
								<stop  offset="0.6555" style="stop-color:#DB9A1B"/>
								<stop  offset="0.8383" style="stop-color:#D58D11"/>
								<stop  offset="1" style="stop-color:#D3880D"/>
							</linearGradient>
							<path class="st4" d="M8,21.5c0,0.5-0.4,0.8-0.8,0.7l0,0c-0.4-0.2-0.8-0.7-0.8-1.3c0-1.9,0-1.5,0-3.4c0-0.5,0.3-0.8,0.8-0.7
								l0,0C7.7,17.1,8,17.6,8,18.1C8,20.1,8,19.6,8,21.5z"/>
							
								<linearGradient id="SVGID_6_" gradientUnits="userSpaceOnUse" x1="11.5838" y1="108.933" x2="13.5457" y2="108.933" gradientTransform="matrix(1 0 0 -1 0 130)">
								<stop  offset="0" style="stop-color:#F7DC4D"/>
								<stop  offset="0.2" style="stop-color:#F7DC4D"/>
								<stop  offset="0.2635" style="stop-color:#F2D044"/>
								<stop  offset="0.4625" style="stop-color:#E5B12C"/>
								<stop  offset="0.6555" style="stop-color:#DB9A1B"/>
								<stop  offset="0.8383" style="stop-color:#D58D11"/>
								<stop  offset="1" style="stop-color:#D3880D"/>
							</linearGradient>
							<path class="st5" d="M13.5,23c0,0.5-0.5,0.9-1,0.8l0,0c-0.5-0.1-1-0.6-1-1.2c0-1.9,0-1.5,0-3.4c0-0.5,0.4-0.9,1-0.7l0,0
								c0.5,0.1,1,0.6,1,1.2C13.5,21.5,13.5,21.1,13.5,23z"/>
							
								<linearGradient id="SVGID_7_" gradientUnits="userSpaceOnUse" x1="17.783" y1="107.9582" x2="20.0398" y2="107.9582" gradientTransform="matrix(1 0 0 -1 0 130)">
								<stop  offset="0" style="stop-color:#FAE877"/>
								<stop  offset="0.2182" style="stop-color:#F7DC4D"/>
								<stop  offset="0.4116" style="stop-color:#EBC138"/>
								<stop  offset="0.619" style="stop-color:#E2AB27"/>
								<stop  offset="0.8186" style="stop-color:#DC9D1D"/>
								<stop  offset="1" style="stop-color:#DA991A"/>
							</linearGradient>
							<path class="st6" d="M20,23.8c0,0.5-0.5,0.9-1.1,0.9l0,0c-0.6-0.1-1.1-0.5-1.1-1.1c0-1.9,0-1.5,0-3.4c0-0.5,0.5-0.9,1.1-0.8
								l0,0c0.6,0.1,1.1,0.5,1.1,1.1C20,22.4,20,21.9,20,23.8z"/>
							
								<linearGradient id="SVGID_8_" gradientUnits="userSpaceOnUse" x1="24.7771" y1="107.6104" x2="27.2244" y2="107.6104" gradientTransform="matrix(1 0 0 -1 0 130)">
								<stop  offset="0" style="stop-color:#FCF4B0"/>
								<stop  offset="0.1372" style="stop-color:#FAEB8B"/>
								<stop  offset="0.2887" style="stop-color:#F8E369"/>
								<stop  offset="0.4141" style="stop-color:#F7DE55"/>
								<stop  offset="0.497" style="stop-color:#F7DC4D"/>
								<stop  offset="1" style="stop-color:#E2AA26"/>
							</linearGradient>
							<path class="st7" d="M27.2,24.1c0,0.5-0.5,1-1.2,1l0,0c-0.7,0-1.2-0.4-1.2-1c0-1.9,0-1.5,0-3.4c0-0.5,0.5-0.9,1.2-0.9l0,0
								c0.7,0,1.2,0.4,1.2,0.9C27.2,22.6,27.2,22.2,27.2,24.1z"/>
							
								<linearGradient id="SVGID_9_" gradientUnits="userSpaceOnUse" x1="31.9627" y1="107.9582" x2="34.2185" y2="107.9582" gradientTransform="matrix(1 0 0 -1 0 130)">
								<stop  offset="0" style="stop-color:#FCF4B0"/>
								<stop  offset="8.400000e-02" style="stop-color:#FCF3AA"/>
								<stop  offset="0.1979" style="stop-color:#FBEE99"/>
								<stop  offset="0.329" style="stop-color:#F9E77C"/>
								<stop  offset="0.4719" style="stop-color:#F7DE55"/>
								<stop  offset="0.497" style="stop-color:#F7DC4D"/>
								<stop  offset="1" style="stop-color:#E9BA33"/>
							</linearGradient>
							<path class="st8" d="M34.2,23.6c0,0.5-0.5,1-1.1,1.1l0,0c-0.6,0.1-1.1-0.3-1.1-0.9c0-1.9,0-1.5,0-3.4c0-0.5,0.5-1,1.1-1.1
								l0,0c0.6-0.1,1.1,0.3,1.1,0.8C34.2,22.1,34.2,21.7,34.2,23.6z"/>
							
								<linearGradient id="SVGID_10_" gradientUnits="userSpaceOnUse" x1="38.4578" y1="108.933" x2="40.4178" y2="108.933" gradientTransform="matrix(1 0 0 -1 0 130)">
								<stop  offset="0" style="stop-color:#FCF4B0"/>
								<stop  offset="8.400000e-02" style="stop-color:#FCF3AA"/>
								<stop  offset="0.1979" style="stop-color:#FBEE99"/>
								<stop  offset="0.329" style="stop-color:#F9E77C"/>
								<stop  offset="0.4719" style="stop-color:#F7DE55"/>
								<stop  offset="0.497" style="stop-color:#F7DC4D"/>
								<stop  offset="0.6642" style="stop-color:#EEC63C"/>
								<stop  offset="0.8655" style="stop-color:#E5B12C"/>
								<stop  offset="1" style="stop-color:#E2AA26"/>
							</linearGradient>
							<path class="st9" d="M40.4,22.5c0,0.5-0.4,1.1-1,1.2l0,0c-0.5,0.1-1-0.2-1-0.8c0-1.9,0-1.5,0-3.4c0-0.5,0.5-1,1-1.2l0,0
								c0.5-0.1,1,0.2,1,0.7C40.4,21.1,40.4,20.6,40.4,22.5z"/>
							
								<linearGradient id="SVGID_11_" gradientUnits="userSpaceOnUse" x1="43.9773" y1="110.4435" x2="45.5545" y2="110.4435" gradientTransform="matrix(1 0 0 -1 0 130)">
								<stop  offset="0" style="stop-color:#FBEF97"/>
								<stop  offset="4.490000e-02" style="stop-color:#FAEB89"/>
								<stop  offset="0.1624" style="stop-color:#F8E368"/>
								<stop  offset="0.2607" style="stop-color:#F7DE54"/>
								<stop  offset="0.3273" style="stop-color:#F7DC4D"/>
								<stop  offset="0.3565" style="stop-color:#F5D84A"/>
								<stop  offset="0.6283" style="stop-color:#E6B630"/>
								<stop  offset="0.8525" style="stop-color:#DDA120"/>
								<stop  offset="1" style="stop-color:#DA991A"/>
							</linearGradient>
							<path class="st10" d="M45.6,21c0,0.5-0.3,1.1-0.8,1.3l0,0c-0.4,0.2-0.8-0.1-0.8-0.7c0-1.9,0-1.5,0-3.4c0-0.5,0.4-1.1,0.8-1.2
								l0,0c0.4-0.2,0.8,0.1,0.8,0.7C45.6,19.5,45.6,19,45.6,21z"/>
							
								<linearGradient id="SVGID_12_" gradientUnits="userSpaceOnUse" x1="48.2547" y1="112.3912" x2="49.3592" y2="112.3912" gradientTransform="matrix(1 0 0 -1 0 130)">
								<stop  offset="0" style="stop-color:#FBEF97"/>
								<stop  offset="0.2061" style="stop-color:#F7DC4D"/>
								<stop  offset="1" style="stop-color:#DA991A"/>
							</linearGradient>
							<path class="st11" d="M49.4,18.9c0,0.5-0.2,1.1-0.5,1.3l0,0c-0.3,0.2-0.6-0.1-0.6-0.6c0-1.9,0-1.5,0-3.4
								c0-0.5,0.3-1.1,0.6-1.3l0,0c0.3-0.2,0.5,0.1,0.5,0.6C49.4,17.5,49.4,17,49.4,18.9z"/>
							
								<linearGradient id="SVGID_13_" gradientUnits="userSpaceOnUse" x1="51.0203" y1="114.6836" x2="51.5584" y2="114.6836" gradientTransform="matrix(1 0 0 -1 0 130)">
								<stop  offset="0" style="stop-color:#FBEF97"/>
								<stop  offset="0.5273" style="stop-color:#F7DC4D"/>
								<stop  offset="1" style="stop-color:#E9BA33"/>
							</linearGradient>
							<path class="st12" d="M51.6,16.6c0,0.5-0.1,1.1-0.2,1.4l0,0c-0.1,0.2-0.3,0-0.3-0.6c0-1.9,0-1.5,0-3.4c0-0.5,0.1-1.1,0.3-1.4
								l0,0c0.1-0.2,0.2,0,0.2,0.5C51.6,15.1,51.6,14.7,51.6,16.6z"/>
						</g>
					</g>
					
						<linearGradient id="SVGID_14_" gradientUnits="userSpaceOnUse" x1="43.5995" y1="126.1196" x2="6.3831" y2="114.9199" gradientTransform="matrix(1 0 0 -1 0 130)">
						<stop  offset="0" style="stop-color:#DA991A"/>
						<stop  offset="3.740000e-02" style="stop-color:#DC9D1D"/>
						<stop  offset="0.2749" style="stop-color:#E5B22D"/>
						<stop  offset="0.4303" style="stop-color:#E9BA33"/>
						<stop  offset="1" style="stop-color:#CC7700"/>
					</linearGradient>
					<ellipse class="st13" cx="26" cy="9.2" rx="26" ry="9.2"/>
					
						<linearGradient id="SVGID_15_" gradientUnits="userSpaceOnUse" x1="43.5995" y1="126.1196" x2="6.3831" y2="114.9199" gradientTransform="matrix(1 0 0 -1 0 130)">
						<stop  offset="0" style="stop-color:#F7DC4D"/>
						<stop  offset="3.800000e-02" style="stop-color:#F8DF57"/>
						<stop  offset="0.1838" style="stop-color:#F9E87A"/>
						<stop  offset="0.3036" style="stop-color:#FBED8F"/>
						<stop  offset="0.3818" style="stop-color:#FBEF97"/>
						<stop  offset="0.4955" style="stop-color:#FAEC8F"/>
						<stop  offset="0.6731" style="stop-color:#F7E279"/>
						<stop  offset="0.8914" style="stop-color:#F3D455"/>
						<stop  offset="1" style="stop-color:#F0CB40"/>
					</linearGradient>
					<ellipse class="st14" cx="26" cy="9.2" rx="26" ry="9.2"/>
					
						<linearGradient id="SVGID_16_" gradientUnits="userSpaceOnUse" x1="38.1403" y1="126.3509" x2="4.8609" y2="113.1448" gradientTransform="matrix(1 0 0 -1 0 130)">
						<stop  offset="0" style="stop-color:#FAE877"/>
						<stop  offset="2.840000e-02" style="stop-color:#FAEB84"/>
						<stop  offset="8.730000e-02" style="stop-color:#FBEF97"/>
						<stop  offset="0.1549" style="stop-color:#FCF2A5"/>
						<stop  offset="0.2379" style="stop-color:#FCF3AE"/>
						<stop  offset="0.3818" style="stop-color:#FCF4B0"/>
						<stop  offset="0.5878" style="stop-color:#FCF3AE"/>
						<stop  offset="0.6998" style="stop-color:#FBF1A6"/>
						<stop  offset="0.7893" style="stop-color:#FBEE98"/>
						<stop  offset="0.8668" style="stop-color:#FAE985"/>
						<stop  offset="0.9359" style="stop-color:#F9E36C"/>
						<stop  offset="0.9994" style="stop-color:#F7DC4D"/>
						<stop  offset="1" style="stop-color:#F7DC4D"/>
					</linearGradient>
					<path class="st15" d="M26,1.6C14.5,1.6,5.3,4.7,5.3,8.5c0,3.8,9.2,6.6,20.7,6.6s20.7-2.8,20.7-6.6C46.7,4.7,37.5,1.6,26,1.6z"
						/>
					
						<linearGradient id="SVGID_17_" gradientUnits="userSpaceOnUse" x1="39.664" y1="126.8448" x2="10.0324" y2="117.9276" gradientTransform="matrix(1 0 0 -1 0 130)">
						<stop  offset="0" style="stop-color:#DA991A"/>
						<stop  offset="0.16" style="stop-color:#E3AE2A"/>
						<stop  offset="0.3673" style="stop-color:#EDC33A"/>
						<stop  offset="0.503" style="stop-color:#F0CB40"/>
						<stop  offset="0.5967" style="stop-color:#EDC33A"/>
						<stop  offset="0.7432" style="stop-color:#E3AD29"/>
						<stop  offset="0.9231" style="stop-color:#D4890D"/>
						<stop  offset="1" style="stop-color:#CC7700"/>
					</linearGradient>
					<path class="st16" d="M26,2.8c10.9,0,19.7,2.8,20.6,6.3c0-0.2,0.1-0.4,0.1-0.6c0-3.8-9.2-6.9-20.7-6.9S5.3,4.7,5.3,8.5
						c0,0.2,0,0.4,0.1,0.6C6.3,5.6,15.1,2.8,26,2.8z"/>
					
						<linearGradient id="SVGID_18_" gradientUnits="userSpaceOnUse" x1="46.41" y1="118.1777" x2="5.4136" y2="118.1777" gradientTransform="matrix(1 0 0 -1 0 130)">
						<stop  offset="0" style="stop-color:#FAE877"/>
						<stop  offset="0.1226" style="stop-color:#FCF2A6"/>
						<stop  offset="0.2328" style="stop-color:#FEF9C9"/>
						<stop  offset="0.3229" style="stop-color:#FFFDDE"/>
						<stop  offset="0.3818" style="stop-color:#FFFFE6"/>
						<stop  offset="0.5266" style="stop-color:#FEFCD9"/>
						<stop  offset="0.7954" style="stop-color:#FDF5B6"/>
						<stop  offset="1" style="stop-color:#FBEF97"/>
					</linearGradient>
					<path class="st17" d="M26,14.1C14.5,14.1,5.3,12,5.3,8.5c0,3.8,9.2,6.6,20.7,6.6s20.7-2.8,20.7-6.6C46.7,12,37.5,14.1,26,14.1z
						"/>
					<g>
						
							<linearGradient id="SVGID_19_" gradientUnits="userSpaceOnUse" x1="34.0956" y1="129.3997" x2="13.6151" y2="109.1395" gradientTransform="matrix(1 0 0 -1 0 130)">
							<stop  offset="0" style="stop-color:#FAE877"/>
							<stop  offset="2.580000e-02" style="stop-color:#F3D65C"/>
							<stop  offset="5.460000e-02" style="stop-color:#EEC645"/>
							<stop  offset="8.180001e-02" style="stop-color:#EABD38"/>
							<stop  offset="0.1058" style="stop-color:#E9BA33"/>
							<stop  offset="0.1474" style="stop-color:#ECC340"/>
							<stop  offset="0.2238" style="stop-color:#F5D961"/>
							<stop  offset="0.2667" style="stop-color:#FAE877"/>
							<stop  offset="0.3413" style="stop-color:#FAE877"/>
							<stop  offset="0.5636" style="stop-color:#F8E262"/>
							<stop  offset="0.851" style="stop-color:#D3880D"/>
							<stop  offset="0.8804" style="stop-color:#D58C11"/>
							<stop  offset="0.9129" style="stop-color:#DA9A1E"/>
							<stop  offset="0.9467" style="stop-color:#E3B033"/>
							<stop  offset="0.9813" style="stop-color:#F0CE4F"/>
							<stop  offset="1" style="stop-color:#F8E262"/>
						</linearGradient>
						<path class="st18" d="M18.6,11.7c-0.1,0-0.2-0.1-0.2-0.1c0,0,0,0,0-0.1l1.5-0.9c-1.8-0.4-3-0.9-3.6-1.4c0,0,0,0,0-0.1
							c0-0.1,0.1-0.1,0.3-0.1l3-0.3c0.1,0,0.2,0,0.3,0c0,0,0,0,0,0c0.1,0,0.2,0,0.2,0.1c0.3,0.3,1.4,0.7,3.4,1c2.7,0.4,4.6,0.2,5,0
							c0.6-0.4-1.4-0.9-3.1-1.3c-1.5-0.3-5.4-1.1-5.6-2.2c0-0.2,0.1-0.5,0.5-0.8C21,5.3,22,5,23.3,4.9c1.7-0.2,3.8-0.2,6,0L30.7,4
							c0.1,0,0.1-0.1,0.2-0.1c0.1,0,0.2,0,0.4,0l3.2,0.5c0.2,0,0.2,0.1,0.2,0.1c0,0,0,0,0,0.1l-1.5,0.9c1.8,0.4,3,0.9,3.6,1.4
							c0,0,0,0,0,0.1c0,0.1-0.1,0.1-0.3,0.1l-3,0.3c-0.1,0-0.2,0-0.3,0c0,0,0,0,0,0c-0.1,0-0.2,0-0.2-0.1c-0.3-0.3-1.4-0.7-3.4-1
							c-2.7-0.4-4.6-0.2-5,0c-0.6,0.4,1.4,0.9,3.1,1.3c1.5,0.3,5.5,1.1,5.6,2.2c0,0.2-0.1,0.5-0.5,0.7c-0.6,0.4-1.6,0.6-2.9,0.8
							c-1.7,0.2-3.8,0.2-6,0l-1.5,0.9c-0.1,0-0.2,0.1-0.3,0.1c-0.1,0-0.2,0-0.3,0L18.6,11.7z"/>
						<g>
							
								<linearGradient id="SVGID_20_" gradientUnits="userSpaceOnUse" x1="33.2098" y1="124.9057" x2="34.7248" y2="124.9057" gradientTransform="matrix(1 0 0 -1 0 130)">
								<stop  offset="0" style="stop-color:#E2AA26"/>
								<stop  offset="0.3739" style="stop-color:#DEA11F"/>
								<stop  offset="0.982" style="stop-color:#D3890E"/>
								<stop  offset="1" style="stop-color:#D3880D"/>
							</linearGradient>
							<path class="st19" d="M34.7,4.6L34,5l-0.8,0.5c0.3,0.1,0.5,0.1,0.8,0.2l0.7-0.4c0,0,0,0,0-0.1L34.7,4.6
								C34.7,4.5,34.7,4.6,34.7,4.6z"/>
							
								<linearGradient id="SVGID_21_" gradientUnits="userSpaceOnUse" x1="23.8429" y1="115.8237" x2="24.596" y2="127.0696" gradientTransform="matrix(1 0 0 -1 0 130)">
								<stop  offset="0" style="stop-color:#E2AA26"/>
								<stop  offset="0.3739" style="stop-color:#DEA11F"/>
								<stop  offset="0.982" style="stop-color:#D3890E"/>
								<stop  offset="1" style="stop-color:#D3880D"/>
							</linearGradient>
							<path class="st20" d="M25.4,8.6c-1.4-0.3-4.8-1-5.5-1.9c-0.1-0.1-0.1-0.2-0.1-0.2V7c0.2,1.1,4.1,1.9,5.6,2.2
								c1.1,0.2,2.2,0.5,2.8,0.8c0.2,0,0.3-0.1,0.4-0.1C29.2,9.5,27.2,8.9,25.4,8.6z"/>
							
								<linearGradient id="SVGID_22_" gradientUnits="userSpaceOnUse" x1="33.1834" y1="122.5169" x2="36.823" y2="122.5169" gradientTransform="matrix(1 0 0 -1 0 130)">
								<stop  offset="0" style="stop-color:#E2AA26"/>
								<stop  offset="0.3739" style="stop-color:#DEA11F"/>
								<stop  offset="0.982" style="stop-color:#D3890E"/>
								<stop  offset="1" style="stop-color:#D3880D"/>
							</linearGradient>
							<path class="st21" d="M36.5,7.1l-0.4,0l-2.6,0.3c-0.1,0-0.2,0-0.3,0V8c0.1,0,0.2,0,0.3,0l3-0.3c0.2,0,0.3-0.1,0.3-0.1V6.9
								C36.8,7,36.7,7,36.5,7.1z"/>
							
								<linearGradient id="SVGID_23_" gradientUnits="userSpaceOnUse" x1="18.3875" y1="117.767" x2="22.115" y2="117.767" gradientTransform="matrix(1 0 0 -1 0 130)">
								<stop  offset="0" style="stop-color:#E2AA26"/>
								<stop  offset="0.3739" style="stop-color:#DEA11F"/>
								<stop  offset="0.982" style="stop-color:#D3890E"/>
								<stop  offset="1" style="stop-color:#D3880D"/>
							</linearGradient>
							<path class="st22" d="M21.8,12.2l-2.7-0.4l-0.5-0.1c-0.1,0-0.2-0.1-0.2-0.1v0.6c0,0,0.1,0.1,0.2,0.1l3.2,0.5
								c0.1,0,0.2,0,0.3,0v-0.6C22,12.2,21.9,12.2,21.8,12.2z"/>
							
								<linearGradient id="SVGID_24_" gradientUnits="userSpaceOnUse" x1="23.8269" y1="119.0887" x2="33.2834" y2="119.0887" gradientTransform="matrix(1 0 0 -1 0 130)">
								<stop  offset="0" style="stop-color:#E2AA26"/>
								<stop  offset="0.3739" style="stop-color:#DEA11F"/>
								<stop  offset="0.982" style="stop-color:#D3890E"/>
								<stop  offset="1" style="stop-color:#D3880D"/>
							</linearGradient>
							<path class="st23" d="M33.2,10.1c-0.1,0.1-0.2,0.2-0.4,0.4c-0.6,0.4-1.6,0.6-2.9,0.8c-1.7,0.2-3.8,0.2-6,0v0.6
								c2.2,0.2,4.3,0.2,6,0c1.3-0.1,2.3-0.4,2.9-0.8c0.4-0.2,0.6-0.5,0.5-0.7V9.8C33.3,9.9,33.3,10,33.2,10.1z"/>
							
								<linearGradient id="SVGID_25_" gradientUnits="userSpaceOnUse" x1="22.115" y1="117.9517" x2="23.8269" y2="117.9517" gradientTransform="matrix(1 0 0 -1 0 130)">
								<stop  offset="0" style="stop-color:#E2AA26"/>
								<stop  offset="0.3739" style="stop-color:#DEA11F"/>
								<stop  offset="0.982" style="stop-color:#D3890E"/>
								<stop  offset="1" style="stop-color:#D3880D"/>
							</linearGradient>
							<path class="st24" d="M22.4,12.1c-0.1,0-0.2,0.1-0.3,0.1v0.6c0.1,0,0.2,0,0.3-0.1l1.5-0.9v-0.6L22.4,12.1z"/>
							
								<linearGradient id="SVGID_26_" gradientUnits="userSpaceOnUse" x1="24.4362" y1="123.0021" x2="33.1834" y2="123.0021" gradientTransform="matrix(1 0 0 -1 0 130)">
								<stop  offset="0" style="stop-color:#E2AA26"/>
								<stop  offset="0.3739" style="stop-color:#DEA11F"/>
								<stop  offset="0.982" style="stop-color:#D3890E"/>
								<stop  offset="1" style="stop-color:#D3880D"/>
							</linearGradient>
							<path class="st25" d="M33.2,7.4c-0.1,0-0.2,0-0.2-0.1c-0.3-0.3-1.4-0.7-3.4-1c-2.7-0.4-4.6-0.2-5,0c-0.3,0.2-0.1,0.3,0.3,0.5
								c0.7-0.2,2.4-0.3,4.6,0.1c2.1,0.3,3.1,0.8,3.4,1C33,8,33.1,8,33.2,8c0,0,0,0,0,0L33.2,7.4C33.2,7.4,33.2,7.4,33.2,7.4z"/>
							<g>
								
									<linearGradient id="SVGID_27_" gradientUnits="userSpaceOnUse" x1="16.2833" y1="119.8618" x2="19.8943" y2="119.8618" gradientTransform="matrix(1 0 0 -1 0 130)">
									<stop  offset="0" style="stop-color:#E2AA26"/>
									<stop  offset="0.3739" style="stop-color:#DEA11F"/>
									<stop  offset="0.982" style="stop-color:#D3890E"/>
									<stop  offset="1" style="stop-color:#D3880D"/>
								</linearGradient>
								<path class="st26" d="M17,9.7c-0.3-0.1-0.5-0.3-0.7-0.4c0,0,0,0,0-0.1v0.6c0,0,0,0,0,0.1c0.5,0.4,1.5,0.9,2.8,1.2l0.8-0.5
									C18.6,10.4,17.6,10,17,9.7z"/>
							</g>
						</g>
					</g>
					
						<linearGradient id="SVGID_28_" gradientUnits="userSpaceOnUse" x1="52.0008" y1="115.6616" x2="0.1423" y2="115.6616" gradientTransform="matrix(1 0 0 -1 0 130)">
						<stop  offset="0" style="stop-color:#F8E262"/>
						<stop  offset="0.1129" style="stop-color:#FAEB8B"/>
						<stop  offset="0.2269" style="stop-color:#FCF3AE"/>
						<stop  offset="0.3206" style="stop-color:#FEF8C3"/>
						<stop  offset="0.3818" style="stop-color:#FEFACB"/>
						<stop  offset="0.4733" style="stop-color:#FDF5BE"/>
						<stop  offset="0.6439" style="stop-color:#F9EA9B"/>
						<stop  offset="0.8733" style="stop-color:#F3D762"/>
						<stop  offset="1" style="stop-color:#F0CB40"/>
					</linearGradient>
					<path class="st27" d="M26,18.4c-14.4,0-26-4.1-26-9.2c0,5.9,11.6,10.3,26,10.3c14.4,0,26-4.4,26-10.3
						C52,14.2,40.4,18.4,26,18.4z"/>
				</g>
			</g>
		</g>
	</g>
</g>
</svg>
