<?xml version="1.0" encoding="utf-8"?>
<!-- Generator: Adobe Illustrator 24.1.2, SVG Export Plug-In . SVG Version: 6.00 Build 0)  -->
<svg version="1.1" id="Capa_1" xmlns="http://www.w3.org/2000/svg" xmlns:xlink="http://www.w3.org/1999/xlink" x="0px" y="0px"
	 viewBox="0 0 512 297.3" style="enable-background:new 0 0 512 297.3;" xml:space="preserve">
<style type="text/css">
	.st0{fill:#3DAEF4;}
	.st1{fill:#71C9FF;}
	.st2{fill:#FFFFFF;}
	.st3{fill:#E1EFFF;}
</style>
<path class="st0" d="M495.5,0H115.6v8.3c0,4.6-3.7,8.3-8.3,8.3c-4.6,0-8.3-3.7-8.3-8.3V0H16.5C7.4,0,0,7.4,0,16.5v72.7
	c0,4.2,2,8.1,5.6,10.3C22,109.7,33,127.9,33,148.6c0,20.8-11,38.9-27.4,49.1C2,200,0,203.9,0,208.1v72.7c0,9.1,7.4,16.5,16.5,16.5
	h82.6V289c0-4.6,3.7-8.3,8.3-8.3c4.6,0,8.3,3.7,8.3,8.3v8.3h379.9c9.1,0,16.5-7.4,16.5-16.5V16.5C512,7.4,504.6,0,495.5,0z
	 M115.6,256c0,4.6-3.7,8.3-8.3,8.3c-4.6,0-8.3-3.7-8.3-8.3v-16.5c0-4.6,3.7-8.3,8.3-8.3c4.6,0,8.3,3.7,8.3,8.3V256z M115.6,206.5
	c0,4.6-3.7,8.3-8.3,8.3c-4.6,0-8.3-3.7-8.3-8.3V190c0-4.6,3.7-8.3,8.3-8.3c4.6,0,8.3,3.7,8.3,8.3V206.5z M115.6,156.9
	c0,4.6-3.7,8.3-8.3,8.3c-4.6,0-8.3-3.7-8.3-8.3v-16.5c0-4.6,3.7-8.3,8.3-8.3c4.6,0,8.3,3.7,8.3,8.3V156.9z M115.6,107.4
	c0,4.6-3.7,8.3-8.3,8.3c-4.6,0-8.3-3.7-8.3-8.3V90.8c0-4.6,3.7-8.3,8.3-8.3c4.6,0,8.3,3.7,8.3,8.3V107.4z M115.6,57.8
	c0,4.6-3.7,8.3-8.3,8.3c-4.6,0-8.3-3.7-8.3-8.3V41.3c0-4.6,3.7-8.3,8.3-8.3c4.6,0,8.3,3.7,8.3,8.3V57.8z"/>
<path class="st1" d="M487.2,280.8H140.4c-4.6,0-8.3-3.7-8.3-8.3V24.8c0-4.6,3.7-8.3,8.3-8.3h346.8c4.6,0,8.3,3.7,8.3,8.3v247.7
	C495.5,277.1,491.8,280.8,487.2,280.8z"/>
<path class="st2" d="M307,205.7l-42.8,26.9c-9.4,5.9-21.3-2.7-18.6-13.5l12.3-49l-38.8-32.4c-8.5-7.1-4-21.1,7.1-21.8l50.4-3.4
	l18.8-46.9c4.2-10.3,18.8-10.3,22.9,0l18.8,46.9l50.4,3.4c11.1,0.8,15.6,14.7,7.1,21.8L356,170.1l12.3,49
	c2.7,10.8-9.1,19.4-18.6,13.5L307,205.7z"/>
<path class="st3" d="M363,197.8c-53.5-3.3-98.9-36.4-119.6-83l-17.1,1.2c-11.1,0.8-15.6,14.7-7.1,21.8l38.8,32.4l-12.3,49
	c-2.7,10.8,9.1,19.4,18.6,13.5l42.8-26.9l42.8,26.9c9.4,5.9,21.3-2.7,18.6-13.5L363,197.8z"/>
</svg>
