<?xml version="1.0" encoding="utf-8"?>
<!-- Generator: Adobe Illustrator 24.1.2, SVG Export Plug-In . SVG Version: 6.00 Build 0)  -->
<svg version="1.1" id="Layer_1" xmlns="http://www.w3.org/2000/svg" xmlns:xlink="http://www.w3.org/1999/xlink" x="0px" y="0px"
	 viewBox="0 0 512 512" style="enable-background:new 0 0 512 512;" xml:space="preserve">
<style type="text/css">
	.st0{fill:#FFD6A6;}
	.st1{fill:#42434D;}
	.st2{fill:#FE4F60;}
	.st3{fill:#FFDFBA;}
	.st4{fill:#F7C388;}
	.st5{fill:#E84857;}
	.st6{fill:#FF6D7A;}
	.st7{fill:#FE929F;}
	.st8{fill:#4D4E59;}
</style>
<path class="st0" d="M425.9,459.6v43.6c0,4.9-4,8.8-8.8,8.8H94.9c-4.9,0-8.8-4-8.8-8.8v-43.6c0-45.5,37.2-81.6,82.7-82
	c15.1-0.2,28.7-7.6,37-19.5l-0.1-0.1c9.1-13,8.2-24.7,8.3-33.6l0.2-0.4c-39.6-16.4-67.4-55.4-67.4-100.9v-3.4
	c-15.7,0-27.6-12.4-27.6-27.1V85c0-16.5,13.3-29.8,29.8-29.8C162.3,21.9,194.6,0,230.5,0h75.2c48.8,0,88.3,39.5,88.3,88.3v102.6
	c0,15.8-12.8,28.7-28.7,28.7v3.4c0,46-28.4,85.2-68.4,101.3c0.3-0.1,0.5-0.2,0.8-0.3c0.2,0.5,0.1-0.7,0.1,7.9
	c0,25.4,20.6,45.4,45.4,45.6C388.7,378,425.9,414.1,425.9,459.6L425.9,459.6z"/>
<path class="st1" d="M393.9,190.9c0,15.8-12.8,28.7-28.7,28.7v-55.9c0-4.9-4-8.9-9-8.8c-29,0.4-57-7.8-81.1-23.7
	c-5.7-3.8-13.4-0.1-13.7,6.7c-0.2,4.5,0.4,9,1.7,13.3c2,6.3-3.5,12.5-10,11.3c-23.1-4.1-45.2-14.3-64-30.5
	c-16.4-14.2-42.5-3.1-42.5,19.4v68.2c-15.7,0-27.6-12.4-27.6-27.1c0-10.7,0-97.4,0-107.5c0-16.5,13.3-29.8,29.8-29.8
	C162.3,21.9,194.6,0,230.5,0h75.2c48.8,0,88.3,39.5,88.3,88.3V190.9z"/>
<path class="st0" d="M365.2,223c0,60.5-49.1,109.2-109.2,109.2c-60.3,0-109.2-48.9-109.2-109.2c0-6.9,0-65.1,0-72.1
	c0.2-21.8,26-33.1,42.5-18.9c18.7,16.1,40.9,26.3,64,30.5c6.5,1.2,11.9-5,10-11.3c-1.3-4.3-1.9-8.7-1.7-13.3
	c0.3-6.8,8.1-10.5,13.7-6.7c24.1,16,52.1,24.1,81.1,23.7c4.9-0.1,9,3.9,9,8.8V223z"/>
<path class="st2" d="M425.9,459.6v43.6c0,4.9-4,8.8-8.8,8.8H94.9c-4.9,0-8.8-4-8.8-8.8v-43.6c0-45.5,37.2-81.6,82.7-82
	c15-0.2,28.7-7.6,37-19.5c29.8,33.2,35.4,39.4,43.6,48.4c3.5,3.9,9.6,3.9,13.1,0c8.4-9.3,14.1-15.7,43.5-48.4
	c8,11.4,21.7,19.3,37.1,19.4C388.7,378,425.9,414.1,425.9,459.6L425.9,459.6z"/>
<path class="st0" d="M146.8,150c0,0.5,0,1,0,1.4C146.8,150.9,146.8,150.5,146.8,150z"/>
<path class="st0" d="M146.8,150c0,0.5,0,1,0,1.4C146.8,150.9,146.8,150.5,146.8,150z"/>
<path class="st3" d="M231.3,293.6c18,11.2,3.8,38.8-15.9,30.9c-40.4-16.2-68.7-55.6-68.7-101.4c0-76.8,0-72.3,0-73.5
	c1.2-21.1,33-19.8,33.1,1.4c0,10.8,0,26.7,0,50C179.9,241.3,201,274.7,231.3,293.6L231.3,293.6z"/>
<path class="st4" d="M299.2,342.5c-27.2,11.4-57.1,12.3-86.4,0c1.5-6.2,1.2-10.2,1.2-18.1l0.2-0.4c26.6,11,56.9,11.1,83.5,0l0.2,0.4
	C297.9,332.3,297.7,336.3,299.2,342.5L299.2,342.5z"/>
<path class="st5" d="M319.9,399.7c43.7,2,78.5,38,78.5,82.2V512h18.8c4.9,0,8.8-4,8.8-8.8v-43.5c0-45.5-37.2-81.6-82.8-82.1
	c-6.2-0.1-12.2-1.4-17.6-3.7C325.5,374.2,319.9,399.4,319.9,399.7z"/>
<path class="st6" d="M325.6,373.9c-0.1,0.3-11,49.8-11,49.5c-1.4,6.5-9.7,8.6-14.1,3.6c-29-33.4-25-29-28-31.7l33.5-37.2
	C310.9,365.1,317.7,370.5,325.6,373.9L325.6,373.9z"/>
<path class="st6" d="M205.8,358.1l32.7,36.4l-27.1,32.2c-4.3,5.1-12.7,3.1-14.1-3.5c-0.1-0.3-10.8-48.9-10.9-49.2
	C194.3,370.5,201,365,205.8,358.1L205.8,358.1z"/>
<path class="st5" d="M264.8,404v63.9c0,4.9-4,8.8-8.8,8.8c-4.9,0-8.8-4-8.8-8.8V404l2.3,2.5c3.5,3.9,9.6,3.9,13.1,0L264.8,404z"/>
<path class="st7" d="M206.5,404.4c1.6,7.5,3.4,15.4,4.9,22.2c-4.3,5.1-12.7,3.1-14.1-3.5c-4.2-19.3-10.8-49-10.9-49.2
	c7.9-3.4,14.6-8.9,19.5-15.8l9.4,10.5C207.2,378.6,203.7,391.7,206.5,404.4L206.5,404.4z"/>
<path class="st6" d="M192.1,399.7c-43.7,2-78.5,38-78.5,82.2V512H94.9c-4.9,0-8.8-4-8.8-8.8v-43.5c0-45.5,37.2-81.6,82.8-82.1
	c6.2-0.1,12.2-1.4,17.6-3.7C186.5,374.2,192.1,399.4,192.1,399.7L192.1,399.7z"/>
<path class="st8" d="M345,9.3c12,6,7.6,23.9-5.8,23.8c-0.4,0-75.3,0-75.7,0c-33.7,0-64.3,19.3-78.9,49.3c-1.7,3.4-4.9,5.7-8.6,6.5
	c-13.6,2.8-23.8,14.8-23.8,29.2v13.3c0,7.2-5.5,8.3-5.5,20.1v41.4c0,17.7-26.7,18.7-27.6,1c-0.1-1.1,0,6.2,0-108.9
	c0-16.5,13.3-29.8,29.8-29.8C162.3,21.9,194.6,0,230.5,0h75.2C319.8,0,333.2,3.3,345,9.3z"/>
</svg>
