<?xml version="1.0" encoding="utf-8"?>
<!-- Generator: Adobe Illustrator 24.1.2, SVG Export Plug-In . SVG Version: 6.00 Build 0)  -->
<svg version="1.1" id="Layer_1" xmlns="http://www.w3.org/2000/svg" xmlns:xlink="http://www.w3.org/1999/xlink" x="0px" y="0px"
	 viewBox="0 0 512 432.6" style="enable-background:new 0 0 512 432.6;" xml:space="preserve">
<style type="text/css">
	.st0{fill:#C9B8A1;}
	.st1{fill:#B2A18D;}
	.st2{fill:#B4E1FA;}
	.st3{fill:#DAF0FD;}
	.st4{fill:#D2555A;}
	.st5{fill:#C7CFE2;}
	.st6{fill:#FF6464;}
	.st7{fill:#EFF2FA;}
	.st8{opacity:0.97;}
	.st9{fill:#AFB9D2;}
	.st10{fill:#5B5D6E;}
	.st11{fill:#A0D2F0;}
</style>
<path class="st0" d="M494.3,423.7H17.7V8.8c0-4.9,4-8.8,8.8-8.8h459c4.9,0,8.8,4,8.8,8.8V423.7z"/>
<path class="st1" d="M494.3,140.5c-1.8,0.4-3.7,0.8-5.6,0.8c-12.9,0-23.3-10.4-23.3-23.3c0,12.9-10.4,23.3-23.3,23.3
	s-23.3-10.4-23.3-23.3c0,12.9-10.4,23.3-23.3,23.3s-23.3-10.4-23.3-23.3c0,12.9-10.4,23.3-23.3,23.3s-23.3-10.4-23.3-23.3
	c0,12.9-10.4,23.3-23.3,23.3S279,130.9,279,118c0,12.9-10.4,23.3-23.3,23.3s-23.3-10.4-23.3-23.3c0,12.9-10.4,23.3-23.3,23.3
	s-23.3-10.4-23.3-23.3c0,12.9-10.4,23.3-23.3,23.3c-12.9,0-23.3-10.4-23.3-23.3c0,12.9-10.4,23.3-23.3,23.3S93.1,130.8,93.1,118
	c0,12.9-10.4,23.3-23.3,23.3S46.5,130.8,46.5,118c0,12.9-10.4,23.3-23.3,23.3c-1.9,0-3.8-0.3-5.6-0.8v17.8c1.9,0.3,3.7,0.6,5.6,0.6
	c8.6,0,16.7-2.7,23.3-7.3c6.6,4.6,14.6,7.3,23.3,7.3c8.6,0,16.7-2.7,23.3-7.3c6.6,4.6,14.6,7.3,23.3,7.3s16.7-2.7,23.3-7.3
	c6.6,4.6,14.6,7.3,23.3,7.3c8.6,0,16.7-2.7,23.3-7.3c6.6,4.6,14.6,7.3,23.3,7.3c8.6,0,16.7-2.7,23.3-7.3c6.6,4.6,14.6,7.3,23.3,7.3
	c8.6,0,16.7-2.7,23.3-7.3c6.6,4.6,14.6,7.3,23.3,7.3s16.7-2.7,23.3-7.3c6.6,4.6,14.6,7.3,23.3,7.3s16.7-2.7,23.3-7.3
	c6.6,4.6,14.6,7.3,23.3,7.3s16.7-2.7,23.3-7.3c6.6,4.6,14.6,7.3,23.3,7.3c8.6,0,16.7-2.7,23.3-7.3c6.6,4.6,14.6,7.3,23.3,7.3
	c1.9,0,3.8-0.3,5.6-0.6L494.3,140.5L494.3,140.5L494.3,140.5z"/>
<rect x="61.8" y="176.6" class="st2" width="247.2" height="158.9"/>
<polygon class="st3" points="264.8,326.6 247.2,326.6 141.2,185.4 158.9,185.4 "/>
<g>
	<path class="st4" d="M209.5,141.2L209.5,141.2c-12.9,0-23.3-10.4-23.3-23.3V97.1h46.5V118C232.7,130.8,222.3,141.2,209.5,141.2z"/>
	<path class="st4" d="M302.5,141.2L302.5,141.2c-12.9,0-23.3-10.4-23.3-23.3V97.1h46.5V118C325.8,130.8,315.4,141.2,302.5,141.2z"/>
	<path class="st4" d="M116.4,141.2L116.4,141.2c-12.9,0-23.3-10.4-23.3-23.3V97.1h46.5V118C139.6,130.8,129.2,141.2,116.4,141.2z"/>
	<path class="st4" d="M23.3,141.2L23.3,141.2C10.4,141.2,0,130.8,0,118V97.1h46.5V118C46.5,130.8,36.1,141.2,23.3,141.2z"/>
	<path class="st4" d="M395.6,141.2L395.6,141.2c-12.9,0-23.3-10.4-23.3-23.3V97.1h46.5V118C418.9,130.8,408.5,141.2,395.6,141.2z"/>
</g>
<g>
	<path class="st5" d="M162.9,141.2L162.9,141.2c-12.9,0-23.3-10.4-23.3-23.3V97.1h46.5V118C186.2,130.8,175.8,141.2,162.9,141.2z"/>
	<path class="st5" d="M349.1,141.2L349.1,141.2c-12.9,0-23.3-10.4-23.3-23.3V97.1h46.5V118C372.4,130.8,361.9,141.2,349.1,141.2z"/>
</g>
<path class="st4" d="M488.7,141.2L488.7,141.2c-12.9,0-23.3-10.4-23.3-23.3V97.1H512V118C512,130.8,501.6,141.2,488.7,141.2z"/>
<g>
	<path class="st5" d="M442.2,141.2L442.2,141.2c-12.9,0-23.3-10.4-23.3-23.3V97.1h46.5V118C465.5,130.8,455,141.2,442.2,141.2z"/>
	<path class="st5" d="M69.8,141.2L69.8,141.2c-12.9,0-23.3-10.4-23.3-23.3V97.1H93V118C93.1,130.8,82.7,141.2,69.8,141.2z"/>
	<path class="st5" d="M256,141.2L256,141.2c-12.9,0-23.3-10.4-23.3-23.3V97.1h46.5V118C279.3,130.8,268.9,141.2,256,141.2z"/>
</g>
<g>
	<polygon class="st6" points="232.7,97.1 186.2,97.1 191,26.5 234.3,26.5 	"/>
	<polygon class="st6" points="325.8,97.1 279.3,97.1 277.7,26.5 321,26.5 	"/>
	<polygon class="st6" points="139.6,97.1 93.1,97.1 104.3,26.5 147.7,26.5 	"/>
	<polygon class="st6" points="46.5,97.1 0,97.1 17.7,26.5 61,26.5 	"/>
	<polygon class="st6" points="418.9,97.1 372.4,97.1 364.3,26.5 407.7,26.5 	"/>
</g>
<g>
	<polygon class="st7" points="186.2,97.1 139.6,97.1 147.7,26.5 191,26.5 	"/>
	<polygon class="st7" points="372.4,97.1 325.8,97.1 321,26.5 364.3,26.5 	"/>
</g>
<polygon class="st6" points="512,97.1 465.5,97.1 451,26.5 494.3,26.5 "/>
<g>
	<polygon class="st7" points="465.5,97.1 418.9,97.1 407.7,26.5 451,26.5 	"/>
	<polygon class="st7" points="93.1,97.1 46.5,97.1 61,26.5 104.3,26.5 	"/>
	<polygon class="st7" points="279.3,97.1 232.7,97.1 234.3,26.5 277.7,26.5 	"/>
</g>
<path class="st5" d="M503.2,432.6H8.8c-4.9,0-8.8-4-8.8-8.8l0,0c0-4.9,4-8.8,8.8-8.8h494.3c4.9,0,8.8,4,8.8,8.8l0,0
	C512,428.6,508,432.6,503.2,432.6z"/>
<g class="st8">
	<rect x="17.7" y="397.2" class="st9" width="476.7" height="17.7"/>
</g>
<rect x="17.7" y="361.9" class="st1" width="476.7" height="35.3"/>
<g>
	<path class="st10" d="M300.1,185.4v141.2H70.6V185.4H300.1 M309,167.7H61.8c-4.9,0-8.8,4-8.8,8.8v158.9c0,4.9,4,8.8,8.8,8.8H309
		c4.9,0,8.8-4,8.8-8.8V176.6C317.8,171.7,313.8,167.7,309,167.7L309,167.7z"/>
	<path class="st10" d="M450.2,167.7h-88.3c-4.9,0-8.8,4-8.8,8.8v220.7H459V176.6C459,171.7,455.1,167.7,450.2,167.7z"/>
</g>
<rect x="370.8" y="185.4" class="st2" width="70.6" height="141.2"/>
<rect x="70.6" y="185.4" class="st11" width="229.5" height="17.7"/>
<rect id="SVGCleanerId_0" x="370.8" y="185.4" class="st11" width="70.6" height="17.7"/>
<polygon class="st11" points="229.5,326.6 194.2,326.6 88.3,185.4 123.6,185.4 "/>
<polygon class="st2" points="172.1,203 158.9,185.4 141.2,185.4 154.5,203 "/>
<polygon class="st3" points="441.4,256 388.4,185.4 370.8,185.4 441.4,279.5 "/>
<polygon class="st2" points="401.7,203 388.4,185.4 370.8,185.4 384,203 "/>
<g>
	<rect id="SVGCleanerId_0_1_" x="370.8" y="185.4" class="st11" width="70.6" height="17.7"/>
</g>
<polygon class="st3" points="441.4,256 388.4,185.4 370.8,185.4 441.4,279.5 "/>
<polygon class="st11" points="370.8,208.9 370.8,256 423.7,326.6 441.4,326.6 441.4,303.1 "/>
</svg>
