<?xml version="1.0" encoding="utf-8"?>
<!-- Generator: Adobe Illustrator 24.1.2, SVG Export Plug-In . SVG Version: 6.00 Build 0)  -->
<svg version="1.1" id="Layer_1" xmlns="http://www.w3.org/2000/svg" xmlns:xlink="http://www.w3.org/1999/xlink" x="0px" y="0px"
	 viewBox="0 0 1268.9 1253.5" style="enable-background:new 0 0 1268.9 1253.5;" xml:space="preserve">
<style type="text/css">
	.st0{fill:#FEB138;}
	.st1{fill:#55B5FE;}
	.st2{fill:#FEFEFE;}
</style>
<path class="st0" d="M925.7,728.8c2,8.7,4,17.5,6.2,26.2c0.6,2.5,0.2,4.1-1.7,5.8c-3.1,2.7-6.2,5.4-8.5,8.9
	c-2.5,3.8-5.5,7.2-10.1,8.4c-3.3,0.9-3.9,4.3-3.3,5.9c1.1,2.7-0.5,3.7-1.5,5.1c-24.9,32.5-50.1,64.8-74.1,98.1
	c-13.8,19.2-27,38.7-39.9,58.5c-13.9,21.3-26.5,43.3-38.5,65.7c-7.3,13.7-14.2,27.6-20.8,41.7c-16.4,34.8-29.1,71-43.5,106.6
	c-9.2,22.8-17.6,45.9-27.9,68.2c-1,2.3-2.5,4.3-3.7,6.5c-1,1.8-1.8,2.3-3,0.1c-1.2-2.1-1.4-5.7-3.9-5.9c-2.1-0.2-4.4,1.9-6.7,3
	c-2.4,1.2-4.9,2.5-7.9,4c3.8,1.4,6.9,2.6,10.3,3.8c-1.1,1.6-2.7,1.7-4,2.3c-3.3,1.4-3.4,2-0.8,4.4c1.3,1.2,3,1.6,5,2.6
	c-3.5,3.1-7.5,4.2-11.6,4.6c-12,1.1-21.4-4.3-26.8-15.2c-12.2-24.6-21.9-50.3-31.7-76c-27.7-72.5-58.3-143.6-93.8-212.5
	c-8.9-17.3-18.3-34.4-27.7-51.5c-34.3-61.6-73.4-120-117.1-175.3c-29.3-37.1-60.1-73.1-91.7-108.3c-40.2-44.8-82-88.2-125.2-130.1
	C83.4,447.2,43.7,411.4,1.9,378c-2.4-1.9-2.5-3-0.3-5.1c3.1-2.9,5.9-6.1,8.7-9.3c1.4-1.5,2.4-2.2,4.6-0.8
	c20.5,12.5,45.4,1.7,50.2-21.8c1.8-8.8,0-17.2-5.3-24.5c-1.9-2.7-1.6-4.1,0.6-6.2c2.8-2.5,5.3-5.3,7.8-8.1c1.4-1.6,2.3-1.9,4.3-0.7
	c20.5,11.9,44.9,1,49.6-22.1c1.8-8.8,0.1-17.2-5.2-24.6c-1.4-2-1.3-3.2,0.4-4.7c0.9-0.8,1.8-1.8,2.5-2.8c4.2-5.9,8.7-7.9,16.7-5.5
	c12.5,3.6,23.7-1.1,32-11.2c8.2-10,9.7-21.5,4.8-33.4c-1.5-3.5-1.6-5.7,1.4-8.2c2.8-2.4,4.7-6.3,7.9-7.9c3.2-1.6,6.4,2.2,9.9,2.9
	c14,2.8,25.6-1.2,34.2-12.5c8.4-11.1,9-23.2,2.6-35.5c-1.4-2.6-1.3-4,0.9-5.9c2.8-2.5,4.7-6.2,7.9-7.9c3.3-1.7,6.4,2.1,9.8,2.8
	c13.6,2.7,25.2-0.6,33.9-11.5c8.7-11,9.9-23.3,3.5-35.8c-1.7-3.3-1.2-5.1,1.1-7.3c2.4-2.2,4.7-4.6,6.7-7.1c1.6-2,2.8-1.9,4.8-0.4
	c11.2,8.5,26.3,8.9,37.9,1.3c16.5-10.8,19.9-33.1,7.2-48.8c-1.8-2.2-1.9-3.4,0.2-5.3c2.7-2.5,5.3-5.3,7.7-8.2c1.7-2,2.7-2.1,4.5,0
	c8.6,10.4,17.5,20.6,26.1,30.9c41.9,50.3,83.2,101,124,152.2c19.1,23.9,38.1,47.9,56.9,72.1c24.3,31.3,48.6,62.6,71.3,95.1
	c0.3,0.4,0.7,0.7,1,1.1c3.1,5.1,6.6,10,10.4,14.7c3.2,5.2,6.8,10.2,10.6,14.9c7.6,10.9,15.1,21.9,22.8,32.7
	c15.5,21.6,31.1,43.1,46.6,64.7c13.3,18.4,26.6,36.7,40.1,55c29.4,39.9,58.5,80,87.7,120c13.3,18.2,26.5,36.3,39.8,54.5
	c3.6,5,7.2,9.9,10.8,14.9c3.6,5.1,7.2,10.2,10.7,15.3c1.1,1.7,1.9,1.4,3,0C919.7,736.1,922.1,732,925.7,728.8z M368.7,120.6
	c-19.2-0.1-34.8,15-35,34.1c-0.2,19,15.5,34.9,34.6,35c18.6,0.1,34.3-15.5,34.4-34.3C402.9,136,388,120.7,368.7,120.6z M678.6,473
	c0.3-0.1,0.6-0.3,0.9-0.5c3.9-2.9,7.8-5.8,11.8-8.6c1.3-0.9,1-1.7,0.2-2.7c-2.5-3.4-5.1-6.8-7.5-10.3c-1.3-1.9-2.7-1.9-4.3-0.7
	c-3.5,2.6-6.9,5.4-10.5,8c-0.7,0.5-1.6,0.6-0.6,1.8c3.1,3.9,5.6,8.3,9,12C677.9,472.4,677.8,473.1,678.6,473z M738.9,553.4
	c0,0,0.3,0,0.5-0.2c4-3,8-5.9,12-8.9c1-0.7,0.3-1.5-0.2-2.3c-2.7-3.7-5.4-7.4-8.2-11c-0.5-0.7-1.1-1.8-2.4-0.9
	c-3.8,2.8-7.7,5.6-11.4,8.5c-1.1,0.9-1.3,2-0.3,3.3c2.7,3.4,5.3,6.8,7.9,10.3C737.2,552.8,737.5,553.7,738.9,553.4z M574.3,299.9
	c-0.5-0.8-0.9-1.4-1.4-2c-2.3-3.1-4.8-6.1-6.9-9.3c-1.7-2.6-3.5-2.3-5.5-0.6c-3,2.7-6.2,5-9.5,7.3c-0.9,0.6-1.4,1.1-0.4,2.5
	c2.7,4.1,6.2,7.6,9,11.6c0.8,1.2,1.6,0.8,2.5,0.1c3.7-2.8,7.3-5.5,11-8.3C573.5,300.9,573.9,300.3,574.3,299.9z M381.6,717
	c-0.2-0.3-0.4-0.7-0.7-1.1c-2.8-3.7-5.7-7.3-8.3-11.1c-1.1-1.6-2.4-0.8-3.2-0.2c-3.8,2.8-7.4,5.7-11.1,8.6c-1,0.7-1.5,1.2-0.4,2.2
	c3.5,3.1,5.8,7.1,8.7,10.8c1.2,1.5,2.1,1.7,3.6,0.5c3.2-2.6,6.5-5,9.8-7.5C380.5,718.5,381.4,718.1,381.6,717z M475,893
	c0.2-0.1,0.4-0.3,0.6-0.4c4.2-2.3,8.5-4.6,12.7-6.9c1.5-0.8,1-2,0.4-3.1c-2-3.6-4-7.1-5.9-10.8c-1-1.9-2.2-2.1-3.9-1.2
	c-3.5,2-7,4.1-10.5,5.9c-1.9,1-2.2,1.9-1.2,3.8c2.2,3.7,4.2,7.6,6.3,11.3C473.9,892.1,474,893.1,475,893z M512.8,927.9
	c-2.5-4.5-4.4-9.5-7.5-13.9c-0.6-0.8-1.3-0.2-1.9,0.2c-4.1,2.1-8.3,4.1-12.4,6.2c-0.9,0.5-1.6,0.9-0.8,2.3c2.4,4.1,4.6,8.2,6.8,12.4
	c0.7,1.4,1.5,1.7,2.9,0.9c3.8-2.1,7.7-4,11.6-6C512.1,929.6,513,929.3,512.8,927.9z M872,704.7c-0.2-0.4-0.4-0.8-0.6-1.1
	c-2.8-3.8-5.6-7.6-8.4-11.4c-1-1.4-1.9-0.6-2.8,0.1c-3.6,2.6-7.2,5.1-10.9,7.6c-1.1,0.7-1.6,1.2-0.6,2.5c3,3.7,5.8,7.4,8.6,11.2
	c0.9,1.2,1.6,1.3,2.7,0.4c3.6-2.7,7.2-5.3,10.8-8C871.3,705.7,871.6,705.2,872,704.7z M547.9,1003.3c-4.4,2-9.1,4.1-13.9,6.3
	c-0.9,0.4-0.4,1.3-0.1,2c1.9,4.1,3.8,8.1,5.6,12.2c0.6,1.5,1.5,1.8,2.9,1.2c4.1-1.9,8.1-3.8,12.2-5.5c1.4-0.6,1.6-1.2,0.9-2.6
	c-2-4.2-3.8-8.4-5.8-12.5C549.6,1003.8,549.4,1002.8,547.9,1003.3z M527.1,958.4c-0.3,0.1-0.7,0.2-1,0.3c-4.2,2-8.3,4-12.5,5.9
	c-1.4,0.7-1.3,1.5-0.7,2.7c1.9,3.9,3.9,7.8,5.7,11.7c0.7,1.5,1.3,2.1,3,1.2c3.9-2,7.8-3.8,11.8-5.7c1.3-0.6,2-1.1,1.2-2.8
	c-2.1-4-4-8-5.9-12.1C528.4,959.1,528.1,958.3,527.1,958.4z M561.6,1070.7c4.5-2,9.2-4.1,13.8-6.2c1.5-0.7,0.5-1.7,0.1-2.5
	c-1.7-3.9-3.5-7.7-5.1-11.6c-0.7-1.8-1.5-2.2-3.3-1.3c-3.7,1.8-7.5,3.4-11.2,5c-1.7,0.7-2.4,1.5-1.5,3.4c1.9,3.9,3.6,7.9,5.4,11.9
	C560.1,1070.1,560.3,1071.1,561.6,1070.7z M596.9,1108.2c-0.1-0.2-0.1-0.5-0.3-0.7c-2-4.3-4-8.6-6-12.8c-0.5-1.2-1.3-1.3-2.4-0.8
	c-4.2,2-8.3,3.9-12.5,5.8c-1.3,0.6-1.5,1.3-0.8,2.6c2,4,3.9,8.1,5.7,12.2c0.7,1.5,1.4,1.7,2.9,1c4-2,8.1-3.8,12.1-5.7
	C596.2,1109.4,597.1,1109.3,596.9,1108.2z M781.8,583.5c-0.2-0.4-0.5-0.8-0.8-1.2c-2.7-3.6-5.4-7.2-8-10.8c-0.9-1.2-1.6-1.2-2.7-0.3
	c-3.6,2.7-7.2,5.4-10.8,8c-1.3,0.9-1.4,1.7-0.4,3c2.7,3.4,5.3,6.9,7.8,10.5c1,1.4,1.8,1.7,3.3,0.5c3.3-2.6,6.8-5.1,10.1-7.6
	C781,585,782,584.7,781.8,583.5z M603,1160.8c0.3-0.1,0.5-0.2,0.7-0.3c4.3-2,8.6-4,12.9-5.9c1.7-0.8,1.1-1.9,0.5-3.1
	c-1.7-3.7-3.5-7.4-5.1-11.2c-0.8-1.8-1.6-2.2-3.4-1.3c-3.7,1.8-7.4,3.5-11.2,5.2c-1.7,0.7-2.4,1.4-1.4,3.3c1.9,3.8,3.6,7.7,5.4,11.5
	C601.7,1159.8,601.8,1160.8,603,1160.8z M637.9,1198.1c-2-4.4-4.1-9.1-6.2-13.7c-0.4-0.9-1.1-0.6-1.9-0.3c-4.3,1.9-8.6,3.9-13,5.8
	c-1.2,0.5-1.2,1.3-0.7,2.4c1.9,4.1,3.7,8.2,5.5,12.3c0.5,1.1,1.1,1.9,2.6,1.2c4.2-1.9,8.4-3.8,12.6-5.7
	C637.5,1199.7,638.1,1199.3,637.9,1198.1z M888.5,755.3c0.5-0.3,0.8-0.4,1.1-0.6c3.8-2.8,7.6-5.6,11.5-8.4c1.4-1,0.6-1.9-0.1-2.8
	c-2.6-3.5-5.2-7-7.7-10.5c-0.8-1-1.3-1.6-2.6-0.6c-3.6,2.8-7.4,5.5-11.1,8.2c-1,0.7-1.3,1.3-0.5,2.4c2.9,3.8,5.6,7.6,8.5,11.4
	C887.7,754.7,888.1,755,888.5,755.3z M590.9,350.4c0.4-0.2,0.8-0.5,1.2-0.8c3.7-2.6,7.3-5.3,11-7.8c1.6-1.1,0.9-2,0.1-3.1
	c-2.5-3.4-5.1-6.8-7.4-10.3c-1.2-1.7-2.2-1.6-3.6-0.5c-3.4,2.5-6.8,5.1-10.3,7.4c-1.6,1.1-1.4,2-0.4,3.3c2.6,3.4,5,6.8,7.5,10.2
	C589.4,349.5,589.7,350.5,590.9,350.4z M141.9,321.1c-0.6-0.7-1-1.2-1.6-1.7c-3.1-2.9-6.2-5.8-9.3-8.7c-1.3-1.2-2.2-1.3-3.4,0
	c-2.9,3.1-5.8,6.2-8.7,9.3c-1.3,1.3-1.5,2.3,0,3.7c3.2,2.8,6.2,5.8,9.2,8.8c1.4,1.5,2.3,1.2,3.6-0.2c2.9-3.3,6-6.4,8.9-9.6
	C141.1,322.2,141.4,321.7,141.9,321.1z M633.3,381.2c-0.1-0.2-0.2-0.5-0.3-0.7c-2.9-4-5.8-8.1-8.7-12.1c-0.7-1-1.4-0.6-2.2-0.1
	c-3.7,2.7-7.5,5.4-11.2,8c-1.1,0.8-1.5,1.5-0.5,2.7c2.7,3.7,5.4,7.4,8.1,11.2c0.8,1.2,1.6,1.3,2.7,0.4c3.6-2.7,7.3-5.2,10.9-7.8
	C632.5,382.5,633.3,382.1,633.3,381.2z M467.5,191.7c1-0.4,1.3-0.5,1.6-0.7c3.8-3,7.6-6.1,11.4-9.1c1.4-1.1,0.4-2-0.2-2.8
	c-2.6-3.3-5.4-6.5-7.9-10c-1.4-1.9-2.3-1.5-3.8-0.3c-3.2,2.6-6.4,5.2-9.7,7.7c-1.6,1.2-1.8,2-0.4,3.5c2.8,3.2,5.3,6.6,8,9.9
	C466.9,190.6,467.2,191.2,467.5,191.7z M97.2,415.4c-0.5,0.3-1,0.4-1.3,0.7c-3.3,3.7-6.5,7.5-9.8,11.2c-0.8,0.9-0.3,1.5,0.5,2.2
	c3.5,3,7,6,10.4,9.1c1.2,1.1,2,1,3-0.2c2.8-3.3,5.7-6.6,8.6-9.8c1.2-1.4,1.3-2.4-0.3-3.7c-3.2-2.6-6.2-5.3-9.3-8
	C98.5,416.3,97.9,415.9,97.2,415.4z M450.1,142.1c-0.5-0.9-0.6-1.3-0.8-1.5c-3.1-3.9-6.3-7.7-9.4-11.6c-0.8-1-1.5-0.5-2.2,0.1
	c-3.6,2.9-7.1,5.9-10.7,8.7c-1.3,1-1.3,1.8-0.3,3c2.9,3.4,5.7,6.9,8.5,10.4c1,1.3,1.8,1.3,3,0.3c3.4-2.9,6.9-5.7,10.4-8.5
	C449.1,142.6,449.7,142.3,450.1,142.1z M135.4,472.6c0.5-0.4,0.9-0.7,1.2-1c3.2-3.5,6.4-7,9.7-10.4c1.2-1.3,0.4-2-0.5-2.7
	c-3.2-2.9-6.5-5.9-9.6-8.9c-1.3-1.2-2.2-1.1-3.4,0.2c-2.9,3.3-5.8,6.5-8.9,9.6c-1.3,1.4-0.9,2.3,0.3,3.4c3.2,2.8,6.3,5.7,9.4,8.6
	C134.1,471.7,134.8,472.1,135.4,472.6z M164.3,272.3c-0.5,0.4-0.9,0.6-1.3,1c-3.3,3.5-6.7,7.1-10,10.6c-1,1.1-0.3,1.7,0.5,2.4
	c3.2,3,6.4,6,9.5,9c1.2,1.1,2.1,1.5,3.4,0.1c2.9-3.2,5.9-6.4,9-9.5c1.5-1.5,1-2.5-0.3-3.7c-3.1-2.8-6-5.6-9-8.4
	C165.5,273.3,164.9,272.9,164.3,272.3z M400.7,744c-0.2,0.1-0.5,0.2-0.7,0.3c-4.1,2.9-8.2,5.7-12.2,8.6c-1.1,0.8-0.3,1.5,0.1,2.2
	c2.6,3.7,5.3,7.3,7.8,11c1.1,1.6,2.1,1.3,3.4,0.4c3.4-2.5,6.9-4.9,10.4-7.3c1.5-1,1.6-1.9,0.6-3.3c-2.5-3.4-4.9-6.9-7.4-10.3
	C402.2,744.8,401.8,743.9,400.7,744z M281.4,173.3c-0.4-0.5-0.8-1-1.2-1.5c-3.3-3.1-6.6-6.1-9.8-9.3c-1.5-1.5-2.2-0.8-3.3,0.3
	c-2.9,3.1-5.7,6.3-8.7,9.3c-1.4,1.4-1.4,2.3,0.1,3.6c3.2,2.8,6.3,5.7,9.3,8.7c1.3,1.2,2.2,1.3,3.4,0c3-3.3,6.1-6.6,9.2-9.9
	C280.7,174.3,281,173.9,281.4,173.3z M798.4,634.5c0.6-0.3,1-0.6,1.4-0.8c3.6-2.7,7.2-5.4,10.8-8c1.3-0.9,1.5-1.8,0.5-3.1
	c-2.7-3.4-5.3-6.9-7.8-10.5c-1.1-1.5-1.9-1.5-3.2-0.4c-3.3,2.6-6.7,5.2-10.2,7.6c-1.5,1-1.6,1.9-0.5,3.3c2.7,3.4,5.2,7,7.9,10.5
	C797.6,633.5,798,634,798.4,634.5z M233.5,198.6c-0.5,0.4-1.2,0.6-1.5,1c-2.6,3.7-5.9,6.7-9,9.9c-1,1.1-0.9,1.8,0.1,2.8
	c3.4,3.1,6.8,6.2,10.1,9.4c1,1,1.8,1.1,2.8,0c3.1-3.4,6.3-6.7,9.5-10c0.8-0.8,1.1-1.6,0.2-2.5c-3.5-3.3-6.8-6.9-10.7-9.8
	C234.5,199.1,234.1,198.9,233.5,198.6z M662.7,422.3c-0.2-0.4-0.3-0.6-0.4-0.8c-2.9-4-5.7-8.1-8.6-12.1c-0.8-1.2-1.7-0.5-2.5,0.1
	c-3.6,2.6-7.3,5.2-10.9,7.8c-1.2,0.8-1.3,1.5-0.5,2.7c2.7,3.6,5.3,7.2,7.9,10.9c1,1.4,2.4,1.9,3.5,0.8c3.2-3.3,7.1-5.6,10.7-8.3
	C662.1,423,662.4,422.6,662.7,422.3z M450.8,850.2c0.3-0.1,0.7-0.3,1-0.5c3.9-2.4,7.7-4.9,11.7-7.2c2-1.1,1-2.2,0.4-3.3
	c-2-3.4-4.1-6.8-6.1-10.2c-1-1.7-1.9-2.3-3.8-1.1c-3.6,2.3-7.2,4.4-10.9,6.5c-1.3,0.7-1.9,1.3-0.9,2.9c2.4,3.8,4.6,7.7,7,11.5
	C449.6,849.3,449.8,850.2,450.8,850.2z M106.8,358.2c-0.3-0.5-0.6-0.9-0.9-1.3c-3.4-3.3-6.9-6.5-10.4-9.7c-1.3-1.2-2-0.3-2.8,0.5
	c-3,3.2-6,6.3-9.1,9.4c-1,1-1.4,1.9-0.1,3.1c3.3,3,6.6,6.1,9.8,9.2c1.3,1.3,2.2,1.1,3.3-0.1c2.9-3.2,6-6.4,8.9-9.6
	C106.1,359.3,106.4,358.7,106.8,358.2z M438.6,798.5c-0.1-0.2-0.2-0.5-0.3-0.7c-2.7-4.1-5.3-8.1-8-12.1c-0.8-1.2-1.7-0.6-2.6-0.1
	c-3.6,2.4-7.3,4.8-11,7.1c-1.5,0.9-1.7,1.8-0.7,3.3c2.5,3.6,4.8,7.2,7.2,10.9c0.8,1.3,1.6,1.6,3,0.7c3.7-2.5,7.5-4.9,11.2-7.4
	C438,799.9,438.7,799.5,438.6,798.5z M828.5,674.6c0.5-0.2,0.8-0.3,1.1-0.5c3.8-2.8,7.6-5.7,11.4-8.5c1.4-1,0.7-1.9,0-2.8
	c-2.5-3.4-5.1-6.8-7.6-10.2c-1-1.4-1.8-1.7-3.3-0.6c-3.3,2.6-6.8,5.1-10.2,7.6c-1.4,1-1.7,1.8-0.6,3.3c2.7,3.4,5.2,7,7.9,10.5
	C827.6,673.8,828.1,674.1,828.5,674.6z M304.7,148.6c0.3-0.3,0.8-0.6,1.2-1c3.1-3.3,6.1-6.6,9.2-9.8c1.4-1.4,0.7-2.3-0.4-3.4
	c-3.1-2.9-6.2-5.7-9.3-8.7c-1.3-1.3-2.1-1.3-3.3,0c-2.9,3.2-6,6.4-8.9,9.6c-0.5,0.6-1.6,1.3-0.8,2.2c3.6,4,7.6,7.6,11.7,11
	C304.1,148.6,304.3,148.6,304.7,148.6z M240.8,576.8c0.2-0.2,0.6-0.3,0.9-0.6c3.5-3.2,6.9-6.5,10.4-9.7c1.4-1.3,0.5-2.1-0.4-3.1
	c-2.9-3.1-5.9-6.1-8.7-9.3c-1.4-1.5-2.2-1.3-3.6,0c-3,3-6.1,5.9-9.3,8.7c-1.5,1.3-1.4,2.2,0,3.6c3,3,5.9,6.1,8.8,9.2
	C239.4,576.1,239.8,576.8,240.8,576.8z M286.6,602.2c-0.4-0.6-0.6-1-0.9-1.4c-3.1-3.5-6.3-7-9.5-10.6c-1.3-1.5-2.2-0.3-3.1,0.5
	c-3.1,2.7-6.1,5.6-9.2,8.2c-1.7,1.4-1.5,2.4-0.1,3.9c2.8,3,5.5,6.1,8.2,9.2c1.2,1.5,2.1,1.7,3.6,0.3c3.1-2.9,6.3-5.6,9.5-8.4
	C285.6,603.3,286,602.8,286.6,602.2z M211.6,247.2c-0.3-0.4-0.5-0.8-0.8-1c-3.5-3.4-7.1-6.7-10.6-10.1c-1.2-1.2-2-0.2-2.8,0.6
	c-3,3.2-5.9,6.4-9,9.5c-1.3,1.3-1.1,2.2,0.2,3.4c3.1,2.9,6.3,5.7,9.3,8.7c1.4,1.4,2.3,1.2,3.6-0.2c2.9-3.1,5.9-6.1,8.8-9.2
	C210.8,248.4,211.2,247.8,211.6,247.2z M513.1,220.8c-0.9-1.3-1.2-1.8-1.6-2.3c-2.7-3.4-5.5-6.8-8.1-10.3c-1.2-1.6-2-1.3-3.3-0.2
	c-3.2,2.6-6.4,5.1-9.7,7.6c-1.6,1.2-2,2.2-0.6,3.9c2.7,3.2,5.4,6.6,7.9,10c1.1,1.5,1.8,1.6,3.2,0.4c3.4-2.8,6.8-5.4,10.3-8.1
	C511.8,221.3,512.6,221.1,513.1,220.8z M339.3,111.9c0.6-0.5,1.2-1,1.7-1.5c2.9-3,5.6-6,8.6-8.9c1.7-1.6,1.5-2.7-0.2-4.2
	c-3.1-2.7-6.1-5.6-9-8.4c-1.2-1.2-2.1-1.4-3.4,0c-2.9,3.2-5.9,6.4-9,9.5c-1.3,1.3-1.1,2.2,0.2,3.3c3.1,2.9,6.2,5.8,9.3,8.7
	C338,110.9,338.6,111.4,339.3,111.9z M711.7,489.7c-0.3,0.2-0.8,0.4-1.2,0.7c-3.6,2.6-7.2,5.3-10.9,7.9c-1.6,1.2-1.1,2.2-0.1,3.4
	c2.5,3.3,4.9,6.6,7.3,9.9c1.1,1.5,2,1.8,3.6,0.5c3.3-2.6,6.7-5.1,10.2-7.5c1.6-1.1,1.4-2,0.4-3.3c-2.6-3.3-5-6.8-7.5-10.1
	C713,490.6,712.7,489.9,711.7,489.7z M543.4,259.6c-0.1-0.2-0.2-0.5-0.4-0.7c-3-3.8-6-7.7-9-11.5c-0.8-1.1-1.7-0.8-2.6-0.1
	c-3.5,2.8-7.1,5.5-10.7,8.2c-1.3,1-1.4,1.7-0.4,3c2.8,3.4,5.4,6.8,8,10.3c1,1.3,1.9,1.6,3.4,0.5c3.4-2.8,6.9-5.4,10.3-8.1
	C542.8,260.9,543.6,260.5,543.4,259.6z M418.1,102.5c-0.5-0.7-0.9-1.3-1.3-1.9c-2.6-3.2-5.3-6.3-7.7-9.6c-1.3-1.7-2.3-1.7-3.9-0.3
	c-3.1,2.7-6.3,5.3-9.6,7.8c-1.5,1.2-1.7,2.1-0.4,3.6c2.8,3.2,5.4,6.5,8,9.8c1.2,1.6,2.2,1.6,3.6,0.3c3.2-2.8,6.6-5.3,9.8-8
	C417.1,103.7,417.6,103.1,418.1,102.5z M307.8,626.9c-0.2,0.1-0.5,0.2-0.7,0.3c-3.8,3.2-7.6,6.4-11.4,9.7c-0.9,0.8-0.4,1.5,0.2,2.3
	c2.9,3.4,5.9,6.8,8.7,10.2c1,1.2,1.8,1.4,3.1,0.3c3.4-3,6.8-5.9,10.3-8.7c1.1-0.9,1.4-1.5,0.3-2.7c-3-3.4-5.9-6.8-8.8-10.2
	C309.1,627.6,308.7,626.9,307.8,626.9z M183.1,494.4c-0.2-0.4-0.3-0.8-0.6-1.1c-3.6-3.5-7.1-7-10.7-10.4c-1.1-1.1-1.8-0.1-2.5,0.6
	c-3.1,3.1-6.1,6.3-9.2,9.3c-1.2,1.2-1.4,2.1,0,3.3c3.2,3,6.3,6,9.4,9.1c1.2,1.2,2.1,1.4,3.4,0c2.9-3.2,6-6.3,9-9.5
	C182.4,495.4,182.7,494.9,183.1,494.4z M338,688.6c0.3-0.2,0.6-0.3,0.9-0.5c3.8-3,7.5-6.1,11.3-9.1c1-0.8,0.5-1.4-0.1-2.2
	c-2.9-3.6-5.8-7.1-8.6-10.8c-1.1-1.4-2-1-3.1-0.1c-3.4,2.8-6.7,5.5-10.2,8.2c-1.3,1-1.4,1.8-0.3,3c2.8,3.3,5.6,6.7,8.3,10.1
	C336.7,687.9,337,688.6,338,688.6z M206.4,541.3c0.6-0.4,1.1-0.7,1.5-1.2c3.2-3.1,6.4-6.3,9.6-9.5c1.3-1.2,0.7-2.1-0.3-3.1
	c-3-3-6-6-9-9.1c-1.4-1.5-2.3-1.3-3.7,0c-2.9,3.1-6,6-9.1,8.9c-1.3,1.2-1.3,2,0,3.3c3.1,2.9,6,6,9,9
	C205.1,540.3,205.7,540.7,206.4,541.3z M51,393.9c0,4.7,5.1,12.1,8.1,13.3c1.1,0.4,1.6-0.2,2.2-0.8c3.2-3.2,6.3-6.4,9.5-9.5
	c1.4-1.3,1.5-2.4-0.1-3.7c-3.4-2.9-6.8-5.9-10.1-8.8c-0.6-0.5-1.4-1.6-2.2-0.7C55.5,387.2,51.3,390,51,393.9z M374.4,54
	c-5.5-0.2-7.9,3.9-11.1,6.7c-1.5,1.3-1.7,2.4-0.1,3.9c3,2.8,5.9,5.7,8.7,8.7c1.2,1.3,2.2,1.6,3.7,0.2c2.9-3.1,6-6,9-9
	c0.6-0.6,1.4-1,1.1-2.1C384.9,59.8,377,54,374.4,54z"/>
<path class="st1" d="M892.3,709.6c-13.3-18.2-26.5-36.3-39.8-54.5c-29.2-40-58.3-80.1-87.7-120c-13.5-18.3-26.8-36.6-40.1-55
	c-15.6-21.5-31.2-43.1-46.6-64.7c-7.7-10.8-15.2-21.8-22.8-32.7c1-1.3,2-2.5,3-3.8c0.6-0.8,0.8-1.6-0.2-2.2c-4.5-3-8.5-6.7-13.4-9
	c-3.8-4.7-7.2-9.6-10.4-14.7c9.2-12.6,18.3-25.3,27.6-37.8c33.8-45.4,68.9-89.7,104.2-134c30.4-38.1,61-75.9,92-113.5
	c18.1-22,36.6-43.6,54.7-65.6c2.2-2.7,3.6-2.9,5.8-0.1c2,2.6,4.2,5,6.6,7.1c2.3,2.1,2.6,3.5,0.4,6.2C910,35,920,63.1,944.5,68.4
	c9.6,2.1,18.6,0.1,26.5-6.1c1.8-1.4,2.9-1.6,4.5,0.3c2.5,3,5.1,5.8,7.9,8.5c1.8,1.7,1.6,3.1,0.5,5.2c-10.7,20.2,0,43.7,22.2,48.4
	c7.1,1.5,14.2,0.9,20.8-2.6c2.5-1.4,4-1.1,5.5,1.2c0.1,0.2,0.3,0.4,0.5,0.5c2.5,2.6,5.9,4.8,7.3,8s-2.4,6-3.3,9.3
	c-3.8,13.9-0.8,25.9,10.1,35.3c10.6,9.2,22.8,10.6,35.6,4.8c2.4-1.1,3.8-1.1,5.3,1c0.3,0.4,0.7,0.8,1,1.1c5.6,5,8.4,9.5,5.2,18.2
	c-4.5,12.4,0,24.2,10.2,33c9.7,8.4,21,10.1,32.9,5.8c2.9-1,4.9-1.1,6.7,1.5c0.4,0.6,1,1.1,1.6,1.6c5.7,4.6,8.1,8.6,3.6,16.8
	c-7,12.6-2.6,28.1,8.2,37.7c10.5,9.4,26,10.8,38.6,3.5c2-1.1,3.1-1.2,4.6,0.6c2.6,3,5.4,5.9,8.3,8.7c1.8,1.7,1.9,2.8,0.4,5
	c-13.5,19.8-3.9,45.5,19.2,51.4c8.9,2.3,17.4,0.7,25.1-4.2c2.2-1.4,3.3-1.2,4.9,0.7c3,3.5,6.2,6.8,9.5,10.1c1.4,1.4,1.3,2.3-0.3,3.6
	c-21.8,17.3-43,35.4-63.7,54c-15.4,13.7-30.5,27.8-45.4,42c-23.7,22.6-46.9,45.7-69.7,69.2c-49,50.6-96.1,103-140.7,157.6
	c-6.8,8.3-13.5,16.7-20.2,25.1c-0.9,1.1-2.1,2.2-2.4,3.7c-3.6,3.2-6,7.3-8.9,11c-1.1,1.4-1.9,1.7-3,0c-3.5-5.1-7.1-10.2-10.7-15.3
	c0.7-0.9,1.4-1.8,2-2.7c1.8-2.6,5.7-5.1,5.1-7.7c-0.6-2.5-4.5-4.2-7.1-6.1C897,703.4,897,703.4,892.3,709.6z M931.1,155
	c0-19.2-15-34.2-34.2-34.3c-19.3-0.1-34.7,15.1-34.8,34.2c0,18.9,15.7,34.8,34.5,34.8C915.7,189.6,931.1,174.1,931.1,155z
	 M1139.1,309.7c-0.2,0.1-0.6,0.2-0.9,0.4c-3.7,3.4-7.3,6.8-10.9,10.2c-0.9,0.9-0.2,1.6,0.4,2.2c3.1,3.3,6.2,6.5,9.2,9.8
	c1.2,1.3,2.1,1.3,3.3,0.1c3-3,6.1-5.9,9.2-8.8c0.5-0.5,1.1-1.1,1.2-1.8C1150.8,320.9,1140.2,309.8,1139.1,309.7z M994.3,613.4
	c0.9,0,1.4-0.7,1.9-1.2c2.8-3.2,5.5-6.4,8.5-9.5c1.6-1.7,1.1-2.6-0.4-3.9c-3-2.6-6-5.2-8.9-8c-1.6-1.5-2.6-1.3-3.9,0.3
	c-2.7,3.1-5.4,6.2-8.3,9.2c-1.4,1.4-1.3,2.4,0.2,3.6c3.2,2.7,6.4,5.6,9.6,8.4C993.4,612.6,993.9,613,994.3,613.4z M999.1,185.5
	c0.3-0.2,0.6-0.3,0.9-0.5c3.5-3.2,6.9-6.5,10.4-9.7c1-0.9,0.8-1.6,0-2.5c-3.2-3.3-6.4-6.7-9.5-10.1c-1-1-1.6-1.1-2.7-0.1
	c-3.2,3.1-6.5,6.2-9.8,9.2c-1.1,1-1.3,1.8-0.2,3.1c3.1,3.1,6,6.3,9,9.5C997.7,184.8,998.2,185.5,999.1,185.5z M1116.1,285
	c-0.3-0.4-0.5-0.9-0.8-1.2c-3.2-3.5-6.5-6.9-9.7-10.4c-1-1.1-1.8-0.9-2.8,0.1c-3.1,2.9-6.2,5.8-9.3,8.7c-1.3,1.2-1.9,2.2-0.4,3.7
	c3.1,3.1,6,6.3,9,9.5c1.1,1.2,2,1.2,3.1,0.1c3.2-3.1,6.5-6.2,9.8-9.3C1115.4,285.9,1115.7,285.5,1116.1,285z M842.7,139.2
	c-0.4-0.5-0.8-1-1.2-1.3c-3.6-2.9-7.2-5.8-10.7-8.7c-1.2-1-1.9-0.6-2.7,0.5c-2.8,3.5-5.6,7-8.5,10.4c-1.1,1.2-0.9,2,0.4,3
	c3.5,2.8,7,5.6,10.4,8.5c1.1,0.9,1.8,1,2.7-0.2c2.8-3.6,5.8-7.1,8.7-10.7C842.1,140.2,842.3,139.7,842.7,139.2z M964,148.7
	c0.5-0.3,0.9-0.6,1.3-0.9c3.4-3.1,6.7-6.3,10.1-9.5c1.1-1,0.9-1.8-0.1-2.8c-3-3.2-6-6.3-8.9-9.6c-1.2-1.3-2-1.4-3.3-0.1
	c-2.9,2.9-5.9,5.7-9,8.4c-1.5,1.3-1.8,2.5-0.3,4c3,3,5.9,6.1,8.8,9.2C962.9,147.9,963.4,148.2,964,148.7z M1173.8,346.6
	c-0.2,0.1-0.6,0.3-0.9,0.5c-3.5,3.2-6.9,6.5-10.4,9.7c-1.4,1.3-0.4,2.2,0.5,3.1c2.8,3,5.7,5.9,8.4,9c1.5,1.7,2.5,1.4,3.9,0
	c3-3,6.1-5.9,9.3-8.7c1.5-1.3,1.1-2.1-0.1-3.3c-3-3-5.9-6.1-8.8-9.2C1175.2,347.3,1174.8,346.6,1173.8,346.6z M718,297.2
	c0.1-1-0.5-1.3-1-1.7c-3.7-2.8-7.4-5.5-11-8.4c-1.5-1.2-2.2-0.2-3,0.9c-2.6,3.4-5.1,6.8-7.7,10.1c-1,1.3-1.1,2.2,0.4,3.3
	c3.6,2.5,7.1,5.1,10.5,7.9c1.6,1.3,2.2,0.7,3.2-0.6c2.5-3.4,5.1-6.8,7.7-10.2C717.4,298.1,717.7,297.6,718,297.2z M1169.9,439.6
	c0.5-0.4,1-0.6,1.3-0.9c3.5-3,6.9-6.1,10.5-9.1c1.2-1,0.9-1.7,0-2.7c-2.8-3.2-5.6-6.4-8.3-9.6c-1.2-1.5-2.2-2-3.9-0.4
	c-3,2.8-6.1,5.5-9.3,8.1c-1.5,1.2-1.6,2.3-0.3,3.7c2.9,3.3,5.8,6.6,8.7,9.8C1168.9,438.8,1169.4,439.1,1169.9,439.6z M863.5,113.4
	c0.4-0.3,0.8-0.5,1.1-0.9c3-3.6,6-7.3,9-10.9c1-1.2,0.6-2-0.5-2.8c-3.5-2.8-7-5.6-10.4-8.5c-1.1-0.9-1.9-0.9-2.8,0.2
	c-2.8,3.5-5.6,7-8.5,10.4c-1,1.2-1,2.1,0.2,3.1c3.5,2.8,6.9,5.7,10.4,8.5C862.5,112.8,862.9,113,863.5,113.4z M1134.1,448.4
	c-0.5,0.3-1,0.5-1.4,0.8c-3.5,3.2-7,6.4-10.5,9.6c-1.1,1-0.6,1.7,0.2,2.5c3.1,3.3,6.1,6.6,9.1,9.9c1.1,1.2,1.9,1.3,3,0.2
	c3.2-3,6.4-5.9,9.7-8.8c1.3-1.2,1.4-2.1,0.2-3.4c-2.9-3.1-5.7-6.2-8.6-9.3C1135.3,449.4,1134.7,448.9,1134.1,448.4z M797.9,167.5
	c-0.4,0.3-0.8,0.5-1.1,0.9c-3,3.7-5.9,7.4-8.9,11.1c-1.2,1.4-0.3,2.2,0.7,3c3.3,2.6,6.7,5.2,9.9,7.9c1.6,1.4,2.5,0.9,3.6-0.6
	c2.5-3.3,5-6.5,7.7-9.6c1.3-1.5,1.2-2.4-0.4-3.6c-3.4-2.6-6.7-5.3-10-7.9C799.1,168.3,798.6,167.9,797.9,167.5z M1046.3,211.1
	c-0.3-0.5-0.4-0.8-0.7-1.1c-3.4-3.5-6.7-7-10.1-10.5c-1.1-1.2-2-0.4-2.9,0.4c-3.1,2.9-6.1,5.9-9.2,8.8c-1.2,1.2-1.4,2.1-0.2,3.4
	c3,3.1,6,6.3,9,9.6c1.1,1.2,1.9,1.2,3,0.1c3.1-3.1,6.4-6,9.5-9C1045.4,212.2,1045.8,211.6,1046.3,211.1z M766.5,206.9
	c-0.5,0.4-0.9,0.6-1.2,1c-2.9,3.7-5.8,7.5-8.8,11.2c-1.1,1.4-0.1,2,0.8,2.7c3.4,2.7,6.9,5.3,10.3,8.1c1.5,1.2,2.2,0.9,3.2-0.5
	c2.5-3.3,5-6.5,7.7-9.7c1.2-1.5,1.6-2.6-0.3-3.9c-3.4-2.5-6.7-5.2-10-7.8C767.6,207.6,767.1,207.3,766.5,206.9z M930.2,688.5
	c1,0.1,1.4-0.4,1.8-0.9c2.9-3.6,5.7-7.2,8.7-10.7c1.3-1.5,0.3-2.2-0.7-3c-3.2-2.6-6.4-5.1-9.5-7.8c-1.5-1.3-2.6-1.4-4,0.3
	c-2.5,3.2-5.1,6.4-7.8,9.5c-1.2,1.4-1.3,2.4,0.3,3.6c3.3,2.5,6.4,5.1,9.6,7.7C929.2,687.8,929.8,688.2,930.2,688.5z M1081.1,247.9
	c-0.4-0.5-0.6-1-0.9-1.3c-3.1-3.4-6.3-6.7-9.4-10.1c-1.2-1.3-2-0.9-3.1,0.1c-3.1,3-6.3,6-9.5,8.9c-1.4,1.2-1.2,2.1,0,3.3
	c3.1,3.1,6.1,6.2,9,9.4c1.3,1.4,2.1,1.2,3.3,0c3-3,6.2-5.8,9.2-8.7C1080.3,249.2,1080.7,248.5,1081.1,247.9z M677.9,350.5
	c0.4-0.4,0.9-0.6,1.1-1c2.8-3.8,5.5-7.7,8.3-11.5c1-1.4,0.2-1.9-0.8-2.6c-3.4-2.5-6.9-4.9-10.3-7.4c-1.4-1-2.4-1.3-3.6,0.4
	c-2.4,3.6-5.1,7.1-7.7,10.6c-1,1.3-0.7,2.1,0.6,3c3.5,2.4,6.9,4.9,10.3,7.4C676.6,349.8,677.2,350.1,677.9,350.5z M960.5,626.8
	c-0.5,0.3-0.9,0.5-1.2,0.9c-3.2,3.7-6.4,7.4-9.5,11.1c-0.9,1-0.2,1.5,0.5,2.1c3.3,2.8,6.7,5.7,9.9,8.5c1.4,1.2,2.5,1.3,3.7-0.2
	c2.7-3.3,5.4-6.5,8.3-9.7c1.3-1.4,0.9-2.3-0.4-3.4c-3.3-2.7-6.5-5.5-9.7-8.2C961.7,627.5,961.1,627.2,960.5,626.8z M929.9,87.7
	c-0.6,0.4-1.1,0.7-1.5,1.1c-3.2,3-6.4,6-9.6,8.9c-1.5,1.4-1.3,2.4,0,3.7c3,3,6,6,8.8,9.2c1.3,1.5,2.1,1.1,3.3,0
	c3.1-2.9,6.1-5.9,9.3-8.7c1.5-1.3,1.4-2.2,0-3.6c-3-3-5.8-6.2-8.8-9.2C931,88.5,930.5,88.1,929.9,87.7z M736,246.8
	c-1-0.1-1.4,0.3-1.8,0.8c-2.9,3.7-5.8,7.5-8.7,11.2c-0.9,1.1-0.3,1.7,0.6,2.4c3.6,2.7,7.1,5.4,10.6,8.2c1.6,1.3,2.4,0.4,3.3-0.8
	c2.5-3.3,4.9-6.6,7.6-9.7c1.5-1.7,1.1-2.6-0.5-3.8c-3.2-2.4-6.3-4.8-9.5-7.3C737,247.5,736.4,247.1,736,246.8z M1039.7,564.7
	c-0.3-0.4-0.4-0.8-0.6-1c-3.6-3.4-7.3-6.8-10.9-10.2c-1.1-1.1-1.8-0.1-2.4,0.6c-3,3.2-5.9,6.4-9,9.5c-1.3,1.3-1.1,2.2,0.1,3.4
	c3.2,2.9,6.4,5.9,9.6,8.9c1.3,1.2,2.1,0.8,3.1-0.3c3-3.2,6-6.3,9-9.5C1038.9,565.7,1039.3,565.2,1039.7,564.7z M1109.3,494.4
	c-0.2-0.3-0.4-0.7-0.7-1.1c-3.3-3.4-6.6-6.8-9.9-10.2c-1.2-1.2-1.9-0.5-2.8,0.3c-3,3-6,6-9.1,8.8c-1.7,1.5-1.4,2.5,0.1,3.9
	c2.9,2.9,5.7,5.9,8.6,8.9c0.5,0.5,0.9,1.2,1.8,1.2C1097.9,506.2,1109.3,495.2,1109.3,494.4z M1061.9,517.3c-0.5,0.4-1,0.6-1.3,0.9
	c-3.3,3.3-6.5,6.6-9.8,9.8c-1.3,1.3-0.3,2.2,0.6,3.1c2.9,2.9,5.9,5.7,8.8,8.7c1.3,1.4,2.4,1.4,3.7,0c2.9-3.1,5.9-6.1,9-9
	c1.3-1.3,1.2-2.1-0.1-3.3c-3.1-2.9-6-5.9-9.1-8.9C1063.2,518.1,1062.5,517.7,1061.9,517.3z M1217.4,395.3c-0.2-4.7-3.9-7.3-6.5-10.5
	c-1.1-1.4-2-1.4-3.3-0.2c-3.2,3-6.5,5.8-9.8,8.6c-1.5,1.2-1.8,2.2-0.3,3.6c3.2,3.1,6.3,6.3,9.5,9.5c0.6,0.6,1.1,1.3,2.2,0.9
	C1212.2,406,1217.4,398.5,1217.4,395.3z M894.5,54c-3.1,0-10.3,5.2-11.5,8.2c-0.4,1.1,0.2,1.6,0.8,2.2c3.1,3.1,6.2,6.1,9.3,9.2
	c1,1,1.8,1.1,2.8,0.1c3.2-3.3,6.5-6.5,9.8-9.8c0.5-0.5,1.1-1.3,0.4-1.9C902.7,58.7,900.1,54.2,894.5,54z"/>
<path class="st2" d="M368.7,120.6c19.3,0.1,34.2,15.4,34.1,34.8c-0.1,18.9-15.8,34.5-34.4,34.3c-19.1-0.1-34.9-16.1-34.6-35
	C333.9,135.6,349.5,120.4,368.7,120.6z"/>
<path class="st2" d="M678.6,473c-0.8,0.1-0.7-0.6-1-1c-3.4-3.7-5.9-8.1-9-12c-1-1.2-0.1-1.2,0.6-1.8c3.5-2.6,7-5.3,10.5-8
	c1.6-1.2,3-1.2,4.3,0.7c2.4,3.5,4.9,6.9,7.5,10.3c0.8,1,1.1,1.8-0.2,2.7c-4,2.8-7.9,5.7-11.8,8.6C679.2,472.7,678.9,472.8,678.6,473
	z"/>
<path class="st2" d="M738.9,553.4c-1.3,0.3-1.7-0.6-2.2-1.3c-2.6-3.4-5.2-6.9-7.9-10.3c-1-1.2-0.8-2.4,0.3-3.3
	c3.8-2.9,7.6-5.6,11.4-8.5c1.3-1,1.8,0.1,2.4,0.9c2.8,3.7,5.5,7.4,8.2,11c0.5,0.7,1.2,1.5,0.2,2.3c-4,3-8,6-12,8.9
	C739.1,553.4,738.9,553.4,738.9,553.4z"/>
<path class="st2" d="M574.3,299.9c-0.4,0.5-0.8,1-1.2,1.3c-3.7,2.8-7.3,5.5-11,8.3c-0.9,0.7-1.6,1.1-2.5-0.1c-2.8-4-6.3-7.5-9-11.6
	c-1-1.5-0.5-1.9,0.4-2.5c3.3-2.3,6.5-4.6,9.5-7.3c1.9-1.7,3.7-2,5.5,0.6c2.1,3.2,4.6,6.2,6.9,9.3
	C573.4,298.5,573.8,299.1,574.3,299.9z"/>
<path class="st2" d="M381.6,717c-0.1,1.2-1,1.5-1.7,2c-3.3,2.5-6.6,4.9-9.8,7.5c-1.5,1.3-2.4,1-3.6-0.5c-2.8-3.6-5.2-7.7-8.7-10.8
	c-1.1-1-0.6-1.5,0.4-2.2c3.7-2.8,7.3-5.8,11.1-8.6c0.8-0.6,2.1-1.4,3.2,0.2c2.7,3.8,5.6,7.4,8.3,11.1
	C381.1,716.2,381.3,716.6,381.6,717z"/>
<path class="st2" d="M475,893c-1,0.1-1.1-0.9-1.4-1.5c-2.1-3.7-4.1-7.6-6.3-11.3c-1.1-1.8-0.7-2.8,1.2-3.8c3.6-1.8,7-4,10.5-5.9
	c1.7-0.9,2.9-0.7,3.9,1.2c1.9,3.7,3.9,7.2,5.9,10.8c0.6,1.1,1.2,2.3-0.4,3.1c-4.2,2.3-8.5,4.6-12.7,6.9
	C475.4,892.8,475.2,892.9,475,893z"/>
<path class="st2" d="M512.8,927.9c0.2,1.4-0.7,1.6-1.5,2c-3.9,2-7.8,4-11.6,6c-1.4,0.8-2.1,0.5-2.9-0.9c-2.2-4.2-4.4-8.4-6.8-12.4
	c-0.8-1.4-0.1-1.8,0.8-2.3c4.1-2.1,8.3-4.1,12.4-6.2c0.7-0.3,1.3-1,1.9-0.2C508.4,918.4,510.3,923.4,512.8,927.9z"/>
<path class="st2" d="M872,704.7c-0.4,0.4-0.7,1-1.2,1.3c-3.6,2.7-7.2,5.3-10.8,8c-1.2,0.9-1.9,0.8-2.7-0.4
	c-2.8-3.8-5.6-7.6-8.6-11.2c-1.1-1.3-0.5-1.8,0.6-2.5c3.7-2.5,7.3-5.1,10.9-7.6c0.9-0.7,1.8-1.4,2.8-0.1c2.8,3.8,5.6,7.6,8.4,11.4
	C871.6,704,871.8,704.3,872,704.7z"/>
<path class="st2" d="M547.9,1003.3c1.5-0.5,1.6,0.5,1.9,1.1c1.9,4.2,3.8,8.4,5.8,12.5c0.6,1.3,0.4,2-0.9,2.6
	c-4.1,1.8-8.2,3.7-12.2,5.5c-1.4,0.7-2.2,0.3-2.9-1.2c-1.8-4.1-3.7-8.1-5.6-12.2c-0.3-0.6-0.8-1.5,0.1-2
	C538.8,1007.5,543.5,1005.3,547.9,1003.3z"/>
<path class="st2" d="M527.1,958.4c1,0,1.3,0.7,1.6,1.4c2,4,3.8,8.1,5.9,12.1c0.8,1.6,0.1,2.2-1.2,2.8c-3.9,1.8-7.9,3.7-11.8,5.7
	c-1.7,0.9-2.3,0.3-3-1.2c-1.8-4-3.8-7.9-5.7-11.7c-0.6-1.2-0.7-2,0.7-2.7c4.2-1.9,8.3-4,12.5-5.9
	C526.4,958.5,526.8,958.4,527.1,958.4z"/>
<path class="st2" d="M561.6,1070.7c-1.3,0.4-1.5-0.6-1.9-1.4c-1.8-4-3.5-8-5.4-11.9c-0.9-1.9-0.2-2.7,1.5-3.4
	c3.8-1.6,7.6-3.2,11.2-5c1.8-0.9,2.6-0.4,3.3,1.3c1.6,3.9,3.5,7.7,5.1,11.6c0.3,0.8,1.4,1.8-0.1,2.5
	C570.8,1066.6,566.2,1068.7,561.6,1070.7z"/>
<path class="st2" d="M596.9,1108.2c0.2,1.1-0.7,1.2-1.3,1.5c-4,1.9-8.1,3.7-12.1,5.7c-1.5,0.7-2.2,0.5-2.9-1
	c-1.8-4.1-3.7-8.1-5.7-12.2c-0.6-1.3-0.5-2,0.8-2.6c4.2-1.9,8.4-3.8,12.5-5.8c1.1-0.5,1.9-0.3,2.4,0.8c2,4.3,4,8.6,6,12.8
	C596.8,1107.7,596.8,1108,596.9,1108.2z"/>
<path class="st2" d="M781.8,583.5c0.1,1.2-0.8,1.5-1.5,2c-3.4,2.6-6.8,5-10.1,7.6c-1.4,1.1-2.3,0.9-3.3-0.5
	c-2.5-3.5-5.1-7.1-7.8-10.5c-1-1.3-0.9-2,0.4-3c3.7-2.6,7.2-5.3,10.8-8c1.1-0.8,1.8-0.9,2.7,0.3c2.6,3.6,5.3,7.2,8,10.8
	C781.4,582.7,781.6,583.1,781.8,583.5z"/>
<path class="st2" d="M603,1160.8c-1.1,0-1.2-1.1-1.6-1.8c-1.8-3.8-3.4-7.7-5.4-11.5c-1-1.9-0.3-2.6,1.4-3.3
	c3.8-1.6,7.5-3.3,11.2-5.2c1.8-0.9,2.6-0.5,3.4,1.3c1.6,3.8,3.4,7.5,5.1,11.2c0.5,1.2,1.2,2.3-0.5,3.1c-4.3,2-8.6,4-12.9,5.9
	C603.5,1160.7,603.2,1160.7,603,1160.8z"/>
<path class="st2" d="M637.9,1198.1c0.2,1.2-0.3,1.6-1.1,2c-4.2,1.9-8.4,3.7-12.6,5.7c-1.5,0.7-2-0.1-2.6-1.2
	c-1.8-4.1-3.6-8.2-5.5-12.3c-0.5-1.1-0.6-1.8,0.7-2.4c4.3-1.9,8.7-3.8,13-5.8c0.7-0.3,1.5-0.6,1.9,0.3
	C633.8,1189,635.9,1193.7,637.9,1198.1z"/>
<path class="st2" d="M888.5,755.3c-0.3-0.3-0.8-0.6-1-0.9c-2.8-3.8-5.6-7.6-8.5-11.4c-0.8-1.1-0.5-1.7,0.5-2.4
	c3.7-2.7,7.5-5.4,11.1-8.2c1.3-1,1.9-0.5,2.6,0.6c2.6,3.5,5.2,7,7.7,10.5c0.7,0.9,1.5,1.8,0.1,2.8c-3.8,2.8-7.6,5.6-11.5,8.4
	C889.3,754.9,888.9,755,888.5,755.3z"/>
<path class="st2" d="M590.9,350.4c-1.2,0.1-1.5-0.8-2-1.5c-2.5-3.4-5-6.9-7.5-10.2c-1-1.3-1.2-2.2,0.4-3.3c3.5-2.4,6.9-4.9,10.3-7.4
	c1.5-1.1,2.5-1.2,3.6,0.5c2.4,3.5,4.9,6.9,7.4,10.3c0.8,1.1,1.5,2-0.1,3.1c-3.7,2.5-7.3,5.2-11,7.8
	C591.7,349.9,591.3,350.1,590.9,350.4z"/>
<path class="st2" d="M141.9,321.1c-0.5,0.6-0.8,1.1-1.2,1.5c-3,3.2-6,6.3-8.9,9.6c-1.2,1.4-2.2,1.6-3.6,0.2c-3-3-6.1-6-9.2-8.8
	c-1.5-1.4-1.3-2.3,0-3.7c3-3,5.9-6.1,8.7-9.3c1.2-1.3,2.1-1.3,3.4,0c3,3,6.2,5.8,9.3,8.7C140.8,319.9,141.3,320.5,141.9,321.1z"/>
<path class="st2" d="M633.3,381.2c0,0.9-0.7,1.2-1.3,1.6c-3.6,2.6-7.3,5.2-10.9,7.8c-1.2,0.9-1.9,0.7-2.7-0.4
	c-2.6-3.8-5.3-7.5-8.1-11.2c-0.9-1.2-0.6-1.9,0.5-2.7c3.8-2.6,7.5-5.3,11.2-8c0.8-0.5,1.5-1,2.2,0.1c2.9,4.1,5.8,8.1,8.7,12.1
	C633.1,380.8,633.2,381,633.3,381.2z"/>
<path class="st2" d="M467.5,191.7c-0.3-0.5-0.6-1.2-1.1-1.7c-2.6-3.3-5.2-6.7-8-9.9c-1.3-1.5-1.1-2.4,0.4-3.5c3.3-2.5,6.5-5,9.7-7.7
	c1.5-1.3,2.5-1.6,3.8,0.3c2.5,3.4,5.3,6.6,7.9,10c0.7,0.8,1.6,1.7,0.2,2.8c-3.8,3-7.6,6.1-11.4,9.1
	C468.8,191.2,468.4,191.3,467.5,191.7z"/>
<path class="st2" d="M97.2,415.4c0.7,0.5,1.3,1,1.8,1.5c3.1,2.7,6.1,5.4,9.3,8c1.6,1.3,1.5,2.3,0.3,3.7c-2.9,3.2-5.8,6.5-8.6,9.8
	c-1,1.2-1.8,1.3-3,0.2c-3.4-3.1-6.9-6.1-10.4-9.1c-0.7-0.6-1.3-1.2-0.5-2.2c3.3-3.7,6.5-7.5,9.8-11.2
	C96.3,415.8,96.8,415.6,97.2,415.4z"/>
<path class="st2" d="M450.1,142.1c-0.4,0.2-1,0.5-1.5,0.9c-3.5,2.8-7,5.6-10.4,8.5c-1.2,1-2,1-3-0.3c-2.8-3.5-5.6-7-8.5-10.4
	c-1-1.2-1.1-2,0.3-3c3.6-2.8,7.2-5.8,10.7-8.7c0.7-0.6,1.5-1,2.2-0.1c3.1,3.9,6.3,7.7,9.4,11.6C449.6,140.8,449.7,141.2,450.1,142.1
	z"/>
<path class="st2" d="M135.4,472.6c-0.7-0.5-1.3-0.9-1.8-1.3c-3.1-2.8-6.3-5.7-9.4-8.6c-1.2-1.1-1.6-2-0.3-3.4c3-3.1,6-6.4,8.9-9.6
	c1.2-1.3,2.1-1.4,3.4-0.2c3.2,3,6.4,5.9,9.6,8.9c0.9,0.8,1.7,1.5,0.5,2.7c-3.3,3.4-6.4,7-9.7,10.4
	C136.3,471.9,135.9,472.2,135.4,472.6z"/>
<path class="st2" d="M164.3,272.3c0.6,0.5,1.2,1,1.8,1.5c3,2.8,6,5.7,9,8.4c1.3,1.2,1.8,2.2,0.3,3.7c-3.1,3.1-6,6.3-9,9.5
	c-1.3,1.4-2.2,1.1-3.4-0.1c-3.1-3-6.3-6-9.5-9c-0.8-0.7-1.5-1.3-0.5-2.4c3.4-3.5,6.7-7.1,10-10.6
	C163.3,272.9,163.8,272.7,164.3,272.3z"/>
<path class="st2" d="M400.7,744c1.1-0.1,1.5,0.8,2,1.5c2.5,3.4,4.9,6.9,7.4,10.3c1.1,1.4,0.9,2.3-0.6,3.3c-3.5,2.4-7,4.8-10.4,7.3
	c-1.3,0.9-2.3,1.2-3.4-0.4c-2.5-3.7-5.2-7.3-7.8-11c-0.5-0.7-1.3-1.4-0.1-2.2c4.1-2.9,8.1-5.7,12.2-8.6
	C400.2,744.1,400.5,744.1,400.7,744z"/>
<path class="st2" d="M281.4,173.3c-0.4,0.5-0.7,1-1,1.3c-3.1,3.3-6.2,6.5-9.2,9.9c-1.2,1.3-2.1,1.3-3.4,0c-3-3-6.1-5.9-9.3-8.7
	c-1.5-1.3-1.5-2.2-0.1-3.6c3-3,5.9-6.1,8.7-9.3c1-1.1,1.8-1.8,3.3-0.3c3.2,3.2,6.5,6.2,9.8,9.3C280.6,172.3,281,172.8,281.4,173.3z"
	/>
<path class="st2" d="M798.4,634.5c-0.4-0.5-0.9-0.9-1.2-1.4c-2.6-3.5-5.2-7-7.9-10.5c-1.1-1.4-0.9-2.3,0.5-3.3
	c3.5-2.4,6.9-5,10.2-7.6c1.4-1.1,2.2-1.2,3.2,0.4c2.5,3.6,5.2,7,7.8,10.5c1,1.3,0.8,2.1-0.5,3.1c-3.6,2.6-7.2,5.4-10.8,8
	C799.5,633.9,799,634.1,798.4,634.5z"/>
<path class="st2" d="M233.5,198.6c0.5,0.3,1,0.5,1.4,0.7c3.9,2.9,7.2,6.5,10.7,9.8c1,0.9,0.6,1.7-0.2,2.5c-3.2,3.3-6.3,6.7-9.5,10
	c-1,1.1-1.7,1-2.8,0c-3.3-3.2-6.7-6.3-10.1-9.4c-1-1-1.1-1.7-0.1-2.8c3-3.2,6.4-6.2,9-9.9C232.3,199.2,233,199,233.5,198.6z"/>
<path class="st2" d="M662.7,422.3c-0.3,0.3-0.5,0.7-0.9,1c-3.6,2.7-7.5,5.1-10.7,8.3c-1.1,1.1-2.5,0.5-3.5-0.8
	c-2.6-3.7-5.2-7.3-7.9-10.9c-0.9-1.2-0.7-1.9,0.5-2.7c3.7-2.6,7.3-5.2,10.9-7.8c0.8-0.6,1.7-1.3,2.5-0.1c2.9,4,5.7,8.1,8.6,12.1
	C662.3,421.7,662.4,421.9,662.7,422.3z"/>
<path class="st2" d="M450.8,850.2c-1,0-1.2-0.9-1.5-1.5c-2.3-3.8-4.6-7.7-7-11.5c-1-1.5-0.4-2.1,0.9-2.9c3.7-2.1,7.3-4.2,10.9-6.5
	c1.9-1.2,2.8-0.6,3.8,1.1c1.9,3.5,4.1,6.8,6.1,10.2c0.7,1.1,1.6,2.2-0.4,3.3c-4,2.3-7.8,4.8-11.7,7.2
	C451.5,849.9,451.1,850.1,450.8,850.2z"/>
<path class="st2" d="M106.8,358.2c-0.4,0.5-0.7,1.1-1.1,1.5c-3,3.2-6,6.3-8.9,9.6c-1.2,1.3-2,1.4-3.3,0.1c-3.2-3.2-6.5-6.2-9.8-9.2
	c-1.3-1.2-0.9-2,0.1-3.1c3.1-3.1,6.1-6.3,9.1-9.4c0.8-0.8,1.5-1.7,2.8-0.5c3.4,3.3,6.9,6.5,10.4,9.7
	C106.3,357.2,106.5,357.7,106.8,358.2z"/>
<path class="st2" d="M438.6,798.5c0.2,0.9-0.6,1.3-1.2,1.7c-3.7,2.5-7.5,4.9-11.2,7.4c-1.4,0.9-2.1,0.6-3-0.7
	c-2.3-3.7-4.7-7.3-7.2-10.9c-1-1.5-0.8-2.4,0.7-3.3c3.7-2.3,7.3-4.7,11-7.1c0.9-0.6,1.8-1.1,2.6,0.1c2.7,4,5.3,8.1,8,12.1
	C438.4,798.1,438.5,798.3,438.6,798.5z"/>
<path class="st2" d="M828.5,674.6c-0.4-0.4-0.9-0.8-1.3-1.3c-2.6-3.5-5.2-7-7.9-10.5c-1.2-1.5-0.8-2.3,0.6-3.3
	c3.5-2.5,6.9-5,10.2-7.6c1.5-1.2,2.3-0.8,3.3,0.6c2.5,3.5,5,6.8,7.6,10.2c0.7,0.9,1.4,1.8,0,2.8c-3.8,2.8-7.6,5.6-11.4,8.5
	C829.4,674.2,829,674.3,828.5,674.6z"/>
<path class="st2" d="M304.7,148.6c-0.4,0-0.5,0-0.6-0.1c-4.1-3.4-8.1-7-11.7-11c-0.8-0.9,0.3-1.6,0.8-2.2c3-3.2,6-6.3,8.9-9.6
	c1.2-1.3,2.1-1.3,3.3,0c3,3,6.2,5.8,9.3,8.7c1.1,1,1.9,1.9,0.4,3.4c-3.1,3.2-6.1,6.5-9.2,9.8C305.5,148,305,148.4,304.7,148.6z"/>
<path class="st2" d="M240.8,576.8c-1,0-1.4-0.7-1.9-1.2c-2.9-3-5.8-6.2-8.8-9.2c-1.3-1.3-1.5-2.2,0-3.6c3.2-2.8,6.3-5.7,9.3-8.7
	c1.3-1.3,2.2-1.6,3.6,0c2.8,3.2,5.8,6.2,8.7,9.3c0.9,1,1.8,1.8,0.4,3.1c-3.5,3.2-6.9,6.5-10.4,9.7
	C241.4,576.5,241,576.6,240.8,576.8z"/>
<path class="st2" d="M286.6,602.2c-0.5,0.6-1,1.2-1.5,1.6c-3.2,2.8-6.4,5.5-9.5,8.4c-1.5,1.4-2.3,1.2-3.6-0.3
	c-2.6-3.1-5.3-6.2-8.2-9.2c-1.4-1.5-1.6-2.4,0.1-3.9c3.2-2.6,6.1-5.5,9.2-8.2c0.9-0.8,1.8-2,3.1-0.5c3.1,3.5,6.3,7,9.5,10.6
	C286,601.2,286.2,601.6,286.6,602.2z"/>
<path class="st2" d="M211.6,247.2c-0.4,0.6-0.8,1.2-1.3,1.7c-2.9,3.1-5.9,6.1-8.8,9.2c-1.3,1.4-2.2,1.6-3.6,0.2
	c-3-3-6.1-5.9-9.3-8.7c-1.3-1.2-1.4-2.1-0.2-3.4c3.1-3.1,6-6.4,9-9.5c0.8-0.8,1.5-1.8,2.8-0.6c3.5,3.4,7.1,6.7,10.6,10.1
	C211.1,246.5,211.3,246.8,211.6,247.2z"/>
<path class="st2" d="M513.1,220.8c-0.6,0.3-1.3,0.5-1.9,1c-3.5,2.7-6.9,5.3-10.3,8.1c-1.4,1.2-2.2,1.1-3.2-0.4
	c-2.5-3.4-5.2-6.7-7.9-10c-1.4-1.7-1-2.7,0.6-3.9c3.3-2.4,6.5-5,9.7-7.6c1.3-1,2.2-1.3,3.3,0.2c2.6,3.5,5.4,6.8,8.1,10.3
	C511.9,219,512.3,219.5,513.1,220.8z"/>
<path class="st2" d="M339.3,111.9c-0.7-0.5-1.3-1-1.8-1.5c-3.1-2.9-6.1-5.9-9.3-8.7c-1.3-1.2-1.5-2-0.2-3.3c3.1-3.1,6.1-6.3,9-9.5
	c1.2-1.4,2.2-1.2,3.4,0c3,2.9,5.9,5.7,9,8.4c1.7,1.5,1.9,2.6,0.2,4.2c-3,2.9-5.7,5.9-8.6,8.9C340.5,110.9,339.9,111.4,339.3,111.9z"
	/>
<path class="st2" d="M711.7,489.7c1,0.2,1.3,0.9,1.8,1.5c2.5,3.4,4.9,6.8,7.5,10.1c1,1.3,1.2,2.3-0.4,3.3c-3.5,2.4-6.9,4.9-10.2,7.5
	c-1.6,1.3-2.5,1-3.6-0.5c-2.4-3.4-4.8-6.6-7.3-9.9c-0.9-1.2-1.5-2.2,0.1-3.4c3.7-2.6,7.2-5.3,10.9-7.9
	C710.9,490.1,711.4,489.9,711.7,489.7z"/>
<path class="st2" d="M543.4,259.6c0.1,0.9-0.6,1.3-1.2,1.7c-3.4,2.7-6.9,5.3-10.3,8.1c-1.4,1.2-2.3,0.9-3.4-0.5
	c-2.6-3.5-5.3-6.9-8-10.3c-1.1-1.3-0.9-2.1,0.4-3c3.6-2.7,7.1-5.5,10.7-8.2c0.9-0.7,1.7-1,2.6,0.1c3,3.8,6,7.7,9,11.5
	C543.2,259.1,543.3,259.4,543.4,259.6z"/>
<path class="st2" d="M418.1,102.5c-0.5,0.6-0.9,1.2-1.5,1.7c-3.3,2.7-6.6,5.3-9.8,8c-1.5,1.3-2.4,1.3-3.6-0.3
	c-2.6-3.4-5.3-6.6-8-9.8c-1.3-1.5-1.1-2.5,0.4-3.6c3.3-2.5,6.5-5.1,9.6-7.8c1.6-1.4,2.5-1.4,3.9,0.3c2.5,3.3,5.2,6.4,7.7,9.6
	C417.2,101.2,417.6,101.8,418.1,102.5z"/>
<path class="st2" d="M307.8,626.9c0.9,0,1.3,0.6,1.8,1.2c2.9,3.4,5.8,6.9,8.8,10.2c1.1,1.2,0.7,1.8-0.3,2.7
	c-3.5,2.9-6.9,5.7-10.3,8.7c-1.3,1.1-2.1,0.9-3.1-0.3c-2.9-3.4-5.8-6.8-8.7-10.2c-0.6-0.7-1.1-1.5-0.2-2.3c3.8-3.3,7.6-6.5,11.4-9.7
	C307.3,627.1,307.6,627,307.8,626.9z"/>
<path class="st2" d="M183.1,494.4c-0.4,0.5-0.7,1-1.2,1.4c-3,3.2-6.1,6.2-9,9.5c-1.3,1.4-2.2,1.2-3.4,0c-3.1-3.1-6.2-6.2-9.4-9.1
	c-1.4-1.3-1.2-2.1,0-3.3c3.1-3.1,6.1-6.2,9.2-9.3c0.7-0.7,1.4-1.6,2.5-0.6c3.6,3.5,7.1,6.9,10.7,10.4
	C182.8,493.6,182.9,493.9,183.1,494.4z"/>
<path class="st2" d="M338,688.6c-0.9-0.1-1.3-0.8-1.8-1.3c-2.8-3.4-5.5-6.8-8.3-10.1c-1.1-1.3-1-2,0.3-3c3.4-2.7,6.8-5.5,10.2-8.2
	c1.1-0.9,2-1.3,3.1,0.1c2.8,3.6,5.7,7.2,8.6,10.8c0.6,0.7,1.1,1.4,0.1,2.2c-3.8,3-7.5,6.1-11.3,9.1
	C338.6,688.3,338.3,688.5,338,688.6z"/>
<path class="st2" d="M206.4,541.3c-0.7-0.6-1.3-1-1.8-1.5c-3-3-5.9-6.1-9-9c-1.3-1.2-1.3-2,0-3.3c3.1-2.9,6.1-5.9,9.1-8.9
	c1.3-1.4,2.3-1.5,3.7,0c2.9,3.1,5.9,6.1,9,9.1c1,1,1.6,1.9,0.3,3.1c-3.2,3.1-6.4,6.3-9.6,9.5C207.5,540.5,207,540.9,206.4,541.3z"/>
<path class="st2" d="M51,393.9c0.3-3.8,4.4-6.6,7.5-10.1c0.8-0.9,1.6,0.1,2.2,0.7c3.4,2.9,6.7,5.9,10.1,8.8c1.5,1.3,1.4,2.3,0.1,3.7
	c-3.2,3.1-6.3,6.3-9.5,9.5c-0.6,0.6-1.1,1.3-2.2,0.8C56.1,406,51,398.5,51,393.9z"/>
<path class="st2" d="M374.4,54c2.6,0,10.5,5.8,11.2,8.4c0.3,1.1-0.5,1.6-1.1,2.1c-3,3-6,5.9-9,9c-1.4,1.5-2.4,1.1-3.7-0.2
	c-2.9-2.9-5.7-5.9-8.7-8.7c-1.6-1.5-1.4-2.6,0.1-3.9C366.5,58,368.9,53.8,374.4,54z"/>
<path class="st2" d="M892.3,709.6c4.7-6.2,4.7-6.2,10.7-1.6c2.6,1.9,6.5,3.6,7.1,6.1c0.6,2.6-3.3,5.1-5.1,7.7
	c-0.6,0.9-1.3,1.8-2,2.7C899.5,719.5,895.9,714.6,892.3,709.6z"/>
<path class="st2" d="M644.6,367.8c5,2.3,9,6,13.4,9c1,0.6,0.8,1.4,0.2,2.2c-1,1.2-2,2.5-3,3.8C651.4,378,647.8,373,644.6,367.8z"/>
<path class="st2" d="M931.1,155c0,19.1-15.4,34.6-34.4,34.7c-18.8,0.1-34.5-15.8-34.5-34.8c0-19.1,15.5-34.3,34.8-34.2
	C916.1,120.7,931.1,135.8,931.1,155z"/>
<path class="st2" d="M1139.1,309.7c1.1,0.1,11.7,11.2,11.5,12.1c-0.2,0.7-0.7,1.3-1.2,1.8c-3,3-6.2,5.8-9.2,8.8
	c-1.3,1.3-2.1,1.3-3.3-0.1c-3-3.3-6.1-6.6-9.2-9.8c-0.6-0.6-1.4-1.3-0.4-2.2c3.6-3.4,7.3-6.8,10.9-10.2
	C1138.4,309.9,1138.8,309.8,1139.1,309.7z"/>
<path class="st2" d="M994.3,613.4c-0.4-0.4-0.9-0.7-1.4-1.2c-3.2-2.8-6.3-5.6-9.6-8.4c-1.5-1.2-1.6-2.2-0.2-3.6c2.8-3,5.6-6,8.3-9.2
	c1.3-1.6,2.4-1.8,3.9-0.3c2.9,2.8,5.9,5.4,8.9,8c1.5,1.3,2,2.2,0.4,3.9c-2.9,3-5.7,6.3-8.5,9.5C995.7,612.7,995.3,613.3,994.3,613.4
	z"/>
<path class="st2" d="M999.1,185.5c-1,0-1.4-0.6-1.9-1.1c-3-3.2-5.9-6.4-9-9.5c-1.2-1.2-1-2,0.2-3.1c3.3-3,6.6-6.1,9.8-9.2
	c1.1-1,1.7-1,2.7,0.1c3.1,3.4,6.3,6.7,9.5,10.1c0.9,0.9,1,1.6,0,2.5c-3.5,3.2-6.9,6.5-10.4,9.7C999.8,185.2,999.4,185.3,999.1,185.5
	z"/>
<path class="st2" d="M1116.1,285c-0.4,0.5-0.7,0.9-1.1,1.2c-3.3,3.1-6.6,6.1-9.8,9.3c-1.2,1.1-2.1,1-3.1-0.1c-3-3.2-5.9-6.4-9-9.5
	c-1.5-1.5-0.9-2.5,0.4-3.7c3.1-2.9,6.2-5.8,9.3-8.7c1-0.9,1.7-1.2,2.8-0.1c3.2,3.5,6.5,6.9,9.7,10.4
	C1115.6,284.1,1115.8,284.6,1116.1,285z"/>
<path class="st2" d="M842.7,139.2c-0.4,0.6-0.6,1-0.9,1.4c-2.9,3.6-5.9,7.1-8.7,10.7c-1,1.2-1.7,1.1-2.7,0.2
	c-3.4-2.9-6.9-5.7-10.4-8.5c-1.3-1-1.4-1.8-0.4-3c2.9-3.4,5.7-6.9,8.5-10.4c0.8-1,1.5-1.5,2.7-0.5c3.5,3,7.1,5.8,10.7,8.7
	C841.9,138.2,842.3,138.7,842.7,139.2z"/>
<path class="st2" d="M964,148.7c-0.5-0.5-1-0.8-1.5-1.2c-2.9-3.1-5.8-6.2-8.8-9.2c-1.5-1.5-1.2-2.7,0.3-4c3.1-2.7,6.1-5.5,9-8.4
	c1.3-1.3,2.2-1.2,3.3,0.1c2.9,3.2,5.9,6.4,8.9,9.6c0.9,1,1.1,1.8,0.1,2.8c-3.4,3.1-6.7,6.3-10.1,9.5
	C964.9,148.1,964.5,148.4,964,148.7z"/>
<path class="st2" d="M1173.8,346.6c1,0,1.4,0.7,1.9,1.2c3,3,5.8,6.1,8.8,9.2c1.2,1.2,1.5,2,0.1,3.3c-3.2,2.8-6.2,5.8-9.3,8.7
	c-1.4,1.4-2.4,1.7-3.9,0c-2.7-3.1-5.6-6-8.4-9c-0.9-0.9-1.9-1.8-0.5-3.1c3.5-3.2,6.9-6.5,10.4-9.7
	C1173.2,346.9,1173.6,346.8,1173.8,346.6z"/>
<path class="st2" d="M718,297.2c-0.2,0.3-0.6,0.8-1,1.3c-2.6,3.4-5.2,6.7-7.7,10.2c-1,1.3-1.6,1.9-3.2,0.6
	c-3.4-2.7-6.9-5.4-10.5-7.9c-1.5-1.1-1.5-2-0.4-3.3c2.6-3.3,5.1-6.7,7.7-10.1c0.8-1,1.5-2,3-0.9c3.6,2.8,7.4,5.6,11,8.4
	C717.5,295.9,718.1,296.3,718,297.2z"/>
<path class="st2" d="M1169.9,439.6c-0.5-0.4-1-0.8-1.4-1.2c-2.9-3.3-5.8-6.6-8.7-9.8c-1.3-1.4-1.2-2.4,0.3-3.7
	c3.2-2.6,6.3-5.3,9.3-8.1c1.7-1.6,2.7-1,3.9,0.4c2.7,3.3,5.5,6.5,8.3,9.6c0.9,1,1.2,1.7,0,2.7c-3.5,3-7,6-10.5,9.1
	C1170.9,438.9,1170.4,439.2,1169.9,439.6z"/>
<path class="st2" d="M863.5,113.4c-0.5-0.3-1-0.6-1.4-0.9c-3.5-2.8-6.9-5.7-10.4-8.5c-1.3-1-1.2-1.9-0.2-3.1
	c2.9-3.4,5.7-6.9,8.5-10.4c0.9-1.1,1.7-1.1,2.8-0.2c3.4,2.9,6.9,5.7,10.4,8.5c1,0.8,1.4,1.6,0.5,2.8c-3,3.6-6,7.3-9,10.9
	C864.3,112.9,863.9,113.1,863.5,113.4z"/>
<path class="st2" d="M1134.1,448.4c0.6,0.5,1.2,1,1.7,1.5c2.9,3.1,5.7,6.3,8.6,9.3c1.3,1.3,1.1,2.2-0.2,3.4
	c-3.3,2.9-6.5,5.8-9.7,8.8c-1.2,1.1-2,1-3-0.2c-3-3.4-6-6.6-9.1-9.9c-0.8-0.8-1.2-1.5-0.2-2.5c3.5-3.2,7-6.4,10.5-9.6
	C1133.1,448.9,1133.6,448.7,1134.1,448.4z"/>
<path class="st2" d="M797.9,167.5c0.6,0.5,1.1,0.8,1.6,1.2c3.3,2.6,6.6,5.3,10,7.9c1.5,1.2,1.7,2.1,0.4,3.6
	c-2.7,3.1-5.2,6.3-7.7,9.6c-1.1,1.5-2,2-3.6,0.6c-3.2-2.7-6.6-5.3-9.9-7.9c-1.1-0.8-1.9-1.6-0.7-3c3-3.7,5.9-7.4,8.9-11.1
	C797.1,168,797.5,167.8,797.9,167.5z"/>
<path class="st2" d="M1046.3,211.1c-0.5,0.5-0.9,1.1-1.4,1.6c-3.2,3-6.4,5.9-9.5,9c-1.2,1.2-2,1.1-3-0.1c-2.9-3.2-5.9-6.4-9-9.6
	c-1.3-1.3-1.1-2.3,0.2-3.4c3.1-2.9,6.1-5.9,9.2-8.8c0.8-0.8,1.7-1.6,2.9-0.4c3.4,3.5,6.7,7,10.1,10.5
	C1045.9,210.2,1046,210.6,1046.3,211.1z"/>
<path class="st2" d="M766.5,206.9c0.6,0.4,1.1,0.7,1.6,1c3.3,2.6,6.6,5.3,10,7.8c1.8,1.3,1.5,2.5,0.3,3.9c-2.6,3.2-5.2,6.4-7.7,9.7
	c-1,1.4-1.7,1.7-3.2,0.5c-3.3-2.8-6.8-5.4-10.3-8.1c-0.9-0.7-1.9-1.3-0.8-2.7c3-3.7,5.9-7.4,8.8-11.2
	C765.6,207.5,766,207.3,766.5,206.9z"/>
<path class="st2" d="M930.2,688.5c-0.4-0.3-1-0.7-1.6-1.2c-3.2-2.6-6.3-5.2-9.6-7.7c-1.6-1.2-1.5-2.2-0.3-3.6
	c2.7-3.1,5.3-6.3,7.8-9.5c1.3-1.7,2.5-1.6,4-0.3c3.1,2.6,6.3,5.2,9.5,7.8c1,0.8,2,1.5,0.7,3c-3,3.5-5.8,7.1-8.7,10.7
	C931.6,688.1,931.2,688.6,930.2,688.5z"/>
<path class="st2" d="M1081.1,247.9c-0.5,0.6-0.9,1.2-1.4,1.7c-3.1,2.9-6.2,5.7-9.2,8.7c-1.2,1.2-2.1,1.4-3.3,0c-2.9-3.2-6-6.3-9-9.4
	c-1.2-1.2-1.4-2.1,0-3.3c3.2-2.9,6.4-5.9,9.5-8.9c1.1-1,1.9-1.4,3.1-0.1c3.1,3.4,6.3,6.7,9.4,10.1
	C1080.5,247,1080.8,247.4,1081.1,247.9z"/>
<path class="st2" d="M677.9,350.5c-0.7-0.4-1.4-0.7-2-1.2c-3.4-2.5-6.8-5-10.3-7.4c-1.3-0.9-1.5-1.7-0.6-3c2.6-3.5,5.2-7,7.7-10.6
	c1.2-1.8,2.2-1.5,3.6-0.4c3.4,2.5,6.8,5,10.3,7.4c1,0.7,1.8,1.3,0.8,2.6c-2.8,3.8-5.6,7.7-8.3,11.5
	C678.8,349.9,678.4,350.2,677.9,350.5z"/>
<path class="st2" d="M960.5,626.8c0.6,0.4,1.1,0.7,1.6,1.1c3.2,2.7,6.5,5.5,9.7,8.2c1.3,1.1,1.6,2,0.4,3.4c-2.8,3.2-5.6,6.4-8.3,9.7
	c-1.3,1.5-2.3,1.4-3.7,0.2c-3.3-2.9-6.6-5.7-9.9-8.5c-0.7-0.6-1.4-1.1-0.5-2.1c3.2-3.7,6.3-7.4,9.5-11.1
	C959.6,627.3,960.1,627.1,960.5,626.8z"/>
<path class="st2" d="M929.9,87.7c0.6,0.5,1.1,0.8,1.5,1.3c2.9,3.1,5.8,6.2,8.8,9.2c1.4,1.4,1.5,2.3,0,3.6c-3.2,2.8-6.2,5.8-9.3,8.7
	c-1.1,1.1-1.9,1.6-3.3,0c-2.8-3.2-5.8-6.2-8.8-9.2c-1.3-1.3-1.6-2.3,0-3.7c3.3-2.9,6.4-5.9,9.6-8.9C928.8,88.3,929.3,88,929.9,87.7z
	"/>
<path class="st2" d="M736,246.8c0.4,0.3,1,0.7,1.6,1.1c3.2,2.4,6.3,4.9,9.5,7.3c1.6,1.2,2,2.1,0.5,3.8c-2.7,3.1-5.1,6.4-7.6,9.7
	c-0.9,1.2-1.8,2-3.3,0.8c-3.5-2.8-7.1-5.5-10.6-8.2c-0.9-0.7-1.5-1.3-0.6-2.4c2.9-3.7,5.8-7.4,8.7-11.2
	C734.5,247.2,735,246.7,736,246.8z"/>
<path class="st2" d="M1039.7,564.7c-0.4,0.5-0.8,1-1.2,1.4c-3,3.2-6.1,6.3-9,9.5c-1,1.1-1.8,1.5-3.1,0.3c-3.1-3-6.3-6-9.6-8.9
	c-1.3-1.2-1.4-2.1-0.1-3.4c3.1-3.1,6-6.4,9-9.5c0.7-0.7,1.3-1.7,2.4-0.6c3.6,3.4,7.3,6.8,10.9,10.2
	C1039.3,563.9,1039.4,564.3,1039.7,564.7z"/>
<path class="st2" d="M1109.3,494.4c-0.1,0.8-11.5,11.8-12.1,11.8c-0.9,0-1.3-0.6-1.8-1.2c-2.8-3-5.6-6-8.6-8.9
	c-1.4-1.4-1.8-2.4-0.1-3.9c3.1-2.8,6.1-5.9,9.1-8.8c0.9-0.8,1.6-1.6,2.8-0.3c3.3,3.4,6.6,6.8,9.9,10.2
	C1109,493.7,1109.2,494.2,1109.3,494.4z"/>
<path class="st2" d="M1061.9,517.3c0.6,0.5,1.3,0.8,1.8,1.3c3,3,6,6,9.1,8.9c1.3,1.2,1.4,2,0.1,3.3c-3.1,2.9-6,5.9-9,9
	c-1.3,1.4-2.3,1.4-3.7,0c-2.9-3-5.8-5.8-8.8-8.7c-0.9-0.9-1.9-1.7-0.6-3.1c3.3-3.3,6.5-6.5,9.8-9.8
	C1061,517.8,1061.4,517.6,1061.9,517.3z"/>
<path class="st2" d="M1217.4,395.3c0,3.2-5.2,10.8-8.2,11.9c-1.1,0.4-1.6-0.3-2.2-0.9c-3.2-3.2-6.3-6.4-9.5-9.5
	c-1.5-1.4-1.2-2.4,0.3-3.6c3.3-2.8,6.6-5.7,9.8-8.6c1.3-1.2,2.2-1.2,3.3,0.2C1213.5,388,1217.2,390.5,1217.4,395.3z"/>
<path class="st2" d="M894.5,54c5.6,0.1,8.2,4.7,11.6,8c0.7,0.7,0.2,1.4-0.4,1.9c-3.3,3.3-6.5,6.5-9.8,9.8c-1,1.1-1.9,0.9-2.8-0.1
	c-3.1-3.1-6.2-6.1-9.3-9.2c-0.6-0.6-1.3-1.1-0.8-2.2C884.2,59.2,891.4,54.1,894.5,54z"/>
</svg>
